<?xml version="1.0" encoding="UTF-8"?>
<svg xmlns="http://www.w3.org/2000/svg" viewBox="0 0 108 108" role="img" aria-label="Gestao Condominial">
  <rect width="108" height="108" rx="24" fill="#0e0e0e"/>
  <path fill="#ff7a18" d="M29,78 L29,69 Q29,67 31,67 L37,67 Q39,67 39,69 L39,78 Z M39,78 L39,57 Q39,55 41,55 L47,55 Q49,55 49,57 L49,78 Z M49,78 L49,45 Q49,43 51,43 L57,43 Q59,43 59,45 L59,78 Z M59,78 L59,33 Q59,31 61,31 L75,31 Q77,31 77,33 L77,78 Z"/>
  <path fill="#e36400" d="M63,39h6v6h-6z M71,39h6v6h-6z M63,51h6v6h-6z M71,51h6v6h-6z M63,63h6v6h-6z M71,63h6v6h-6z M66,70h8v8h-8z"/>
</svg>
