<?xml version="1.0" standalone="no"?>
<!DOCTYPE svg PUBLIC "-//W3C//DTD SVG 20010904//EN"
 "http://www.w3.org/TR/2001/REC-SVG-20010904/DTD/svg10.dtd">
<svg version="1.0" xmlns="http://www.w3.org/2000/svg"
 width="154.000000pt" height="55.000000pt" viewBox="0 0 154.000000 55.000000"
 preserveAspectRatio="xMidYMid meet">

<g transform="translate(0.000000,55.000000) scale(0.100000,-0.100000)"
fill="#000000" stroke="none">
<path d="M1214 465 c-8 -20 4 -35 26 -35 23 0 32 13 24 34 -8 20 -43 21 -50 1z"/>
<path d="M1342 385 c-18 -13 -22 -25 -20 -53 3 -34 8 -39 55 -61 54 -25 66
-39 53 -60 -9 -15 -42 -18 -87 -7 -29 7 -33 5 -33 -12 0 -22 25 -32 83 -32 51
0 74 14 82 50 8 38 -4 54 -68 86 -34 18 -47 30 -45 42 3 13 14 17 50 15 34 -1
48 3 53 14 8 21 5 23 -51 29 -36 4 -55 1 -72 -11z"/>
<path d="M1100 372 c0 -17 52 -12 58 6 3 8 -6 12 -27 10 -18 -1 -31 -8 -31
-16z"/>
<path d="M1220 275 c0 -108 1 -115 20 -115 19 0 20 7 20 115 0 108 -1 115 -20
115 -19 0 -20 -7 -20 -115z"/>
<path d="M1086 301 c-4 -7 -5 -15 -2 -18 9 -9 19 4 14 18 -4 11 -6 11 -12 0z"/>
<path d="M1082 264 c4 -3 0 -21 -8 -39 -12 -30 -12 -36 2 -49 9 -9 32 -16 55
-16 32 0 39 3 39 20 0 16 -7 20 -30 20 -23 0 -33 6 -39 23 -5 12 -6 28 -4 35
3 6 -1 12 -8 12 -7 0 -10 -3 -7 -6z"/>
</g>
</svg>
