<?xml version="1.0" standalone="no"?>
<!DOCTYPE svg PUBLIC "-//W3C//DTD SVG 20010904//EN"
 "http://www.w3.org/TR/2001/REC-SVG-20010904/DTD/svg10.dtd">
<svg version="1.0" xmlns="http://www.w3.org/2000/svg"
 width="555.000000pt" height="308.000000pt" viewBox="0 0 555.000000 308.000000"
 preserveAspectRatio="xMidYMid meet">

<g transform="translate(0.000000,308.000000) scale(0.100000,-0.100000)"
fill="#000000" stroke="none">
<path d="M2381 2530 c-222 -148 -409 -274 -417 -281 -12 -10 16 -32 157 -126
l171 -115 209 140 209 139 -90 60 -91 60 105 72 c57 39 112 74 120 77 15 6
496 -311 496 -326 0 -5 -178 -128 -395 -275 l-395 -268 77 -54 c43 -30 85 -52
93 -50 24 7 975 647 975 657 0 7 -608 422 -796 543 -25 17 -26 16 -428 -253z"/>
<path d="M3460 2684 c-85 -57 -156 -108 -158 -113 -3 -9 140 -111 157 -111 6
0 47 24 91 53 l80 52 0 113 c0 61 -3 112 -7 111 -5 0 -78 -47 -163 -105z"/>
<path d="M2446 2010 c-269 -181 -491 -331 -493 -334 -3 -3 207 -146 811 -551
11 -7 122 62 435 271 l421 281 -174 116 -174 115 -205 -136 c-113 -75 -206
-139 -206 -142 -1 -3 37 -29 84 -58 47 -30 85 -57 85 -61 0 -11 -220 -157
-232 -153 -27 7 -487 327 -480 334 4 4 181 125 393 268 211 143 385 264 387
269 2 7 -147 112 -159 110 -2 0 -224 -148 -493 -329z"/>
<path d="M2023 1393 l-83 -56 0 -110 c0 -87 3 -108 13 -104 21 8 322 208 324
216 3 7 -153 111 -164 110 -5 0 -45 -25 -90 -56z"/>
<path d="M280 551 l0 -281 153 0 c125 0 158 3 186 18 55 27 76 64 76 131 -1
68 -21 106 -68 126 l-31 13 31 15 c60 31 80 129 39 192 -32 48 -69 58 -233 63
l-153 4 0 -281z m249 163 c45 -57 13 -114 -64 -114 l-45 0 0 70 0 70 44 0 c36
0 48 -5 65 -26z m2 -223 c18 -14 24 -29 24 -60 0 -53 -21 -73 -84 -79 l-51 -5
0 82 0 81 44 0 c28 0 52 -7 67 -19z"/>
<path d="M3298 824 c-5 -4 -8 -130 -8 -281 l0 -273 153 0 c128 0 159 3 194 19
56 26 76 66 71 142 -5 64 -23 93 -72 114 l-30 13 32 16 c57 30 81 121 47 185
-26 51 -73 65 -235 69 -80 2 -148 0 -152 -4z m252 -111 c16 -20 20 -36 16 -57
-10 -46 -24 -56 -82 -56 l-54 0 0 70 0 70 49 0 c42 0 53 -4 71 -27z m2 -220
c12 -11 18 -30 18 -60 0 -60 -25 -83 -90 -83 l-50 0 0 80 0 80 52 0 c34 0 58
-6 70 -17z"/>
<path d="M1675 729 c-85 -21 -108 -70 -108 -244 -1 -187 30 -229 169 -229 102
-1 152 37 157 120 l2 39 -55 0 -55 0 -5 -35 c-8 -48 -17 -60 -44 -60 -42 0
-51 24 -54 155 -4 136 10 195 47 195 28 0 51 -27 51 -61 0 -29 1 -29 55 -29
55 0 55 0 55 30 0 42 -25 87 -58 104 -38 19 -110 26 -157 15z"/>
<path d="M2058 731 c-97 -20 -118 -62 -118 -238 0 -147 12 -184 70 -218 45
-26 159 -27 207 -2 58 31 68 64 68 222 0 153 -10 186 -64 218 -32 18 -114 28
-163 18z m88 -75 c17 -13 19 -29 22 -148 3 -149 -6 -181 -50 -186 -20 -2 -31
4 -45 24 -26 41 -26 257 0 297 19 30 43 34 73 13z"/>
<path d="M2427 723 c-4 -3 -7 -107 -7 -230 l0 -225 129 4 c128 3 130 3 160 32
44 42 56 87 54 198 -2 151 -26 197 -113 217 -50 12 -213 15 -223 4z m194 -82
c22 -17 24 -29 28 -111 5 -149 -15 -200 -79 -200 l-30 0 0 165 0 165 29 0 c16
0 39 -9 52 -19z"/>
<path d="M2890 712 c-61 -30 -75 -69 -75 -207 0 -66 3 -132 7 -147 23 -81 112
-121 219 -99 104 22 136 91 126 273 -8 154 -48 198 -177 198 -42 0 -77 -6
-100 -18z m131 -61 c22 -18 24 -28 27 -132 4 -126 -7 -184 -38 -194 -63 -20
-83 32 -78 194 3 104 5 114 27 132 13 10 27 19 31 19 4 0 18 -9 31 -19z"/>
<path d="M4858 720 c-1 -3 -2 -105 -2 -227 l-1 -223 58 0 57 0 0 224 0 224
-55 4 c-30 1 -56 1 -57 -2z"/>
<path d="M776 502 c-36 -119 -66 -220 -66 -225 0 -4 24 -7 54 -7 l55 0 13 48
14 47 63 0 64 0 14 -47 14 -48 59 0 59 0 -13 43 c-7 23 -37 124 -67 225 l-54
182 -71 0 -71 0 -67 -218z m155 36 c26 -100 26 -98 -24 -98 l-44 0 20 90 c11
49 22 88 24 86 3 -2 13 -37 24 -78z"/>
<path d="M1150 495 l0 -225 50 0 49 0 3 147 3 147 60 -147 60 -147 68 0 67 0
0 225 0 225 -45 0 -45 0 0 -142 c0 -78 -3 -138 -7 -134 -4 3 -32 66 -63 139
l-55 132 -73 3 -72 3 0 -226z"/>
<path d="M3750 495 l0 -225 60 0 60 0 2 193 3 192 27 3 c34 4 78 -36 78 -70 0
-35 -27 -68 -56 -68 -13 0 -24 -4 -24 -9 0 -5 22 -61 49 -123 l50 -113 98 -3
99 -3 13 51 13 50 63 0 63 0 13 -51 13 -50 187 3 c182 3 188 4 213 27 14 13
28 39 32 57 13 72 -19 124 -101 164 -64 31 -95 58 -95 84 0 39 30 56 98 56
l62 0 0 30 0 30 -110 0 c-152 0 -190 -23 -190 -116 0 -66 18 -85 132 -144 80
-41 97 -64 78 -100 -14 -26 -39 -32 -130 -28 l-74 3 -29 95 c-16 52 -42 139
-58 193 l-30 98 -71 -3 -71 -3 -59 -190 c-32 -104 -61 -197 -64 -205 -3 -8
-22 23 -46 75 -29 62 -38 90 -29 93 7 2 24 14 38 26 50 43 39 166 -16 196 -11
5 -81 10 -155 10 l-136 0 0 -225z m575 -32 c5 -21 2 -23 -41 -23 -43 0 -46 2
-40 23 3 12 10 47 16 77 20 99 20 100 65 -77z"/>
<path d="M5040 495 l0 -225 125 0 125 0 0 30 c0 29 0 29 -66 32 l-65 3 0 193
0 192 -59 0 -60 0 0 -225z"/>
</g>
</svg>
