<?xml version="1.0" standalone="no"?>
<!DOCTYPE svg PUBLIC "-//W3C//DTD SVG 20010904//EN"
 "http://www.w3.org/TR/2001/REC-SVG-20010904/DTD/svg10.dtd">
<svg version="1.0" xmlns="http://www.w3.org/2000/svg"
 width="1200.000000pt" height="477.000000pt" viewBox="0 0 1200.000000 477.000000"
 preserveAspectRatio="xMidYMid meet">

<g transform="translate(0.000000,477.000000) scale(0.100000,-0.100000)"
fill="#000000" stroke="none">
<path d="M2114 4759 c-369 -35 -741 -168 -1048 -373 -487 -326 -846 -829 -986
-1384 -88 -351 -102 -674 -45 -1017 110 -651 481 -1223 1033 -1593 472 -315
1064 -444 1622 -352 404 67 773 233 1095 493 100 81 280 266 364 375 l63 82
157 0 c198 1 369 14 451 35 198 51 314 164 368 358 15 55 17 118 17 542 0 523
-1 534 -61 660 -96 205 -352 305 -700 275 -280 -25 -438 -130 -509 -341 -70
-204 -55 -561 30 -729 32 -64 105 -143 160 -176 180 -105 536 -109 696 -8 21
13 42 24 45 24 4 0 4 -36 0 -79 -11 -141 -46 -205 -135 -248 -51 -25 -66 -28
-230 -33 -138 -5 -183 -10 -208 -23 -21 -11 -60 -58 -112 -135 -186 -274 -389
-477 -647 -645 -367 -240 -767 -359 -1204 -360 -579 0 -1106 214 -1530 620
-285 273 -487 603 -606 987 -70 227 -97 418 -97 676 0 279 30 467 115 728 117
356 319 677 588 935 356 342 778 543 1275 607 123 16 413 13 545 -5 490 -69
920 -284 1270 -634 172 -172 290 -332 409 -553 l53 -98 49 0 49 0 -59 119
c-115 228 -289 461 -481 644 -481 457 -1147 689 -1796 626z m2598 -2189 c123
-37 164 -152 156 -435 -5 -166 -16 -206 -71 -263 -99 -102 -438 -88 -510 21
-36 55 -50 136 -50 297 0 85 6 181 12 212 21 100 79 156 184 178 53 11 230 5
279 -10z"/>
<path d="M1517 3372 l-158 -26 3 -720 c4 -796 2 -765 70 -903 36 -74 121 -159
197 -197 107 -55 188 -69 386 -70 209 0 290 14 403 69 137 68 222 188 257 363
23 112 17 495 -9 587 -56 203 -180 323 -382 371 -95 22 -297 22 -388 0 -38 -9
-98 -32 -133 -50 l-63 -34 0 319 c0 249 -3 319 -12 318 -7 -1 -84 -13 -171
-27z m668 -804 c54 -17 118 -83 140 -144 23 -64 33 -374 15 -467 -23 -121 -82
-191 -179 -217 -66 -17 -220 -15 -286 4 -72 21 -126 74 -151 147 -16 47 -19
85 -19 279 0 213 1 228 23 275 37 80 70 106 167 132 61 15 232 10 290 -9z"/>
<path d="M3215 3200 c-22 -4 -93 -16 -158 -25 l-118 -18 4 -651 c3 -567 6
-659 20 -714 45 -168 132 -250 305 -288 37 -8 148 -17 248 -21 l181 -6 26 134
c15 74 27 137 27 140 0 4 -73 8 -163 11 -149 4 -167 6 -207 29 -84 46 -85 48
-88 422 l-3 327 215 0 c119 0 216 2 216 4 0 2 11 58 25 126 14 68 25 129 25
136 0 11 -44 14 -240 14 l-240 0 0 195 c0 218 7 201 -75 185z"/>
<path d="M11870 2385 l0 -805 50 0 50 0 0 805 0 805 -50 0 -50 0 0 -805z"/>
<path d="M8965 3045 c-5 -2 -22 -6 -37 -9 l-28 -6 0 -570 c0 -590 3 -635 42
-715 39 -78 102 -122 206 -144 59 -12 298 -15 305 -3 3 4 8 26 12 48 l6 41
-148 5 c-169 5 -221 21 -266 79 -46 62 -49 91 -54 492 l-5 377 230 0 230 0 11
44 c6 25 11 50 11 55 0 8 -78 11 -240 11 l-240 0 0 150 c0 151 -1 156 -35 145z"/>
<path d="M6058 2759 c-193 -26 -310 -127 -364 -314 -16 -53 -18 -124 -22 -637
l-3 -578 55 0 56 0 0 252 0 252 28 -26 c114 -106 314 -152 501 -114 183 37
277 124 326 302 11 39 18 117 22 229 8 271 -24 409 -121 513 -50 53 -124 94
-201 110 -78 16 -204 21 -277 11z m255 -114 c112 -29 174 -87 209 -197 26 -78
37 -366 19 -475 -34 -203 -138 -283 -367 -283 -190 0 -298 58 -360 192 -28 61
-29 70 -32 241 -4 195 6 283 42 362 39 86 102 137 201 161 70 17 220 17 288
-1z"/>
<path d="M6947 2722 c-3 -16 -9 -41 -13 -56 l-6 -26 219 0 c242 0 308 -10 378
-58 66 -45 89 -105 94 -241 l3 -115 -28 19 c-96 63 -222 90 -384 82 -184 -9
-288 -65 -347 -185 -26 -54 -28 -64 -28 -192 0 -123 2 -140 24 -184 65 -130
186 -186 406 -186 134 0 218 15 292 51 70 34 105 70 142 149 26 54 26 59 29
317 4 275 -4 374 -37 449 -40 89 -122 152 -241 182 -34 8 -138 16 -276 19
l-221 6 -6 -31z m433 -503 c126 -20 199 -71 229 -158 18 -56 14 -209 -8 -258
-41 -90 -128 -117 -350 -111 -192 6 -243 27 -294 123 -17 32 -21 58 -21 130 0
50 6 107 13 129 27 79 98 132 201 149 50 8 167 7 230 -4z"/>
<path d="M8315 2740 c-213 -32 -323 -128 -372 -326 -21 -88 -24 -389 -4 -479
41 -188 157 -300 345 -336 27 -5 129 -9 227 -9 l177 0 7 33 c4 17 9 40 11 50
5 16 -7 17 -158 17 -190 0 -273 11 -345 46 -71 34 -116 89 -144 177 -22 65
-24 90 -24 257 0 165 2 193 23 259 19 58 33 83 70 120 74 74 111 83 352 90
l205 6 11 53 12 52 -172 -1 c-94 -1 -193 -5 -221 -9z"/>
<path d="M9660 2338 c0 -509 6 -549 97 -649 72 -80 174 -111 357 -110 164 1
268 34 338 108 35 36 75 125 88 193 6 30 10 229 10 461 l0 409 -49 0 -50 0 -3
-427 c-3 -415 -4 -430 -26 -484 -42 -105 -116 -148 -272 -156 -189 -11 -295
29 -344 130 -38 77 -45 174 -46 590 l0 347 -50 0 -50 0 0 -412z"/>
<path d="M10865 2738 c-14 -42 -22 -87 -17 -92 3 -3 100 -6 216 -6 231 0 294
-9 369 -53 71 -42 99 -109 105 -248 3 -60 2 -109 -1 -109 -3 0 -23 11 -43 25
-58 40 -158 66 -274 72 -231 13 -376 -47 -439 -181 -33 -70 -47 -189 -32 -276
34 -207 159 -290 436 -290 186 0 304 38 379 121 74 82 78 108 74 472 l-3 314
-35 69 c-77 151 -203 194 -563 194 -125 0 -169 -3 -172 -12z m498 -532 c75
-23 122 -59 148 -113 21 -41 24 -62 24 -153 0 -116 -11 -148 -64 -193 -53 -45
-93 -52 -276 -52 -166 0 -171 1 -228 28 -44 22 -63 39 -85 75 -25 43 -27 55
-27 152 0 90 3 112 24 153 28 57 78 94 154 113 66 17 263 11 330 -10z"/>
</g>
</svg>
