<?xml version="1.0" standalone="no"?>
<!DOCTYPE svg PUBLIC "-//W3C//DTD SVG 20010904//EN"
 "http://www.w3.org/TR/2001/REC-SVG-20010904/DTD/svg10.dtd">
<svg version="1.0" xmlns="http://www.w3.org/2000/svg"
 width="1280.000000pt" height="720.000000pt" viewBox="0 0 1280.000000 720.000000"
 preserveAspectRatio="xMidYMid meet">

<g transform="translate(0.000000,720.000000) scale(0.100000,-0.100000)"
fill="#000000" stroke="none">
<path d="M2905 4583 c-262 -36 -531 -216 -703 -470 -174 -256 -238 -603 -167
-909 65 -282 316 -532 584 -580 111 -20 288 -17 396 5 92 19 271 83 291 104 9
10 65 469 64 529 0 14 -13 8 -60 -26 -100 -74 -155 -91 -290 -91 -105 0 -120
2 -170 27 -118 58 -192 164 -211 304 -33 233 78 443 286 544 176 86 353 70
470 -41 22 -21 43 -39 46 -39 4 0 9 42 13 93 4 50 13 144 21 207 7 63 16 145
20 181 l6 66 -53 23 c-89 38 -130 51 -213 66 -73 13 -258 17 -330 7z"/>
<path d="M6957 4548 c10 -12 174 -295 231 -398 14 -25 32 -56 42 -70 9 -14 65
-112 126 -217 l109 -193 378 0 379 0 -15 23 c-8 13 -79 135 -158 272 -79 138
-147 255 -152 260 -5 6 -51 82 -102 170 l-94 160 -377 3 c-302 2 -375 0 -367
-10z"/>
<path d="M4371 4448 c-56 -118 -176 -365 -314 -648 -52 -107 -117 -242 -145
-300 -27 -58 -105 -217 -172 -355 -171 -350 -240 -495 -240 -506 0 -5 126 -9
304 -9 l305 0 71 130 72 130 303 0 303 0 17 -97 c9 -54 20 -111 24 -128 l7
-30 308 -3 c290 -2 307 -1 302 15 -6 18 -27 119 -71 338 -13 66 -49 242 -80
390 -30 149 -87 425 -125 615 -39 190 -81 392 -93 450 l-22 105 -353 3 -352 2
-49 -102z m343 -623 c8 -55 27 -176 41 -268 15 -93 24 -175 21 -182 -7 -20
-306 -20 -306 0 0 12 193 502 212 538 5 10 11 17 13 15 2 -2 11 -48 19 -103z"/>
<path d="M6086 4538 c-2 -7 -9 -49 -15 -93 -6 -44 -31 -226 -56 -405 -25 -179
-59 -424 -76 -545 -17 -121 -41 -296 -55 -390 -31 -219 -64 -455 -64 -466 0
-5 137 -9 305 -9 236 0 307 3 310 13 6 16 106 722 195 1372 18 127 42 299 54
383 l22 152 -308 0 c-238 0 -309 -3 -312 -12z"/>
<path d="M9695 4541 c-9 -16 -162 -326 -186 -378 -22 -50 -115 -240 -284 -588
-54 -110 -126 -258 -160 -330 -35 -71 -115 -237 -179 -369 -64 -131 -116 -240
-116 -242 0 -2 139 -4 309 -4 l309 0 69 128 69 127 305 3 306 2 17 -107 c10
-60 20 -118 23 -130 l5 -23 298 0 c172 0 301 4 305 9 5 8 -37 227 -96 506 -10
50 -46 223 -79 385 -32 162 -80 394 -105 515 -25 121 -58 283 -73 360 l-28
140 -351 3 c-216 1 -354 -1 -358 -7z m309 -811 c15 -102 34 -222 42 -267 9
-46 12 -88 9 -93 -6 -10 -290 -13 -307 -3 -7 4 23 89 71 203 16 36 54 131 86
213 32 81 62 144 66 140 3 -5 19 -91 33 -193z"/>
<path d="M8099 3451 c-30 -38 -90 -116 -134 -172 -44 -56 -117 -149 -162 -207
l-83 -103 19 -27 c11 -15 54 -84 96 -154 42 -71 80 -130 84 -132 4 -3 180 -7
390 -10 359 -5 382 -4 376 12 -3 9 -57 100 -119 202 -104 171 -161 265 -334
553 -35 59 -68 107 -71 107 -4 0 -32 -31 -62 -69z"/>
</g>
</svg>
