<?xml version="1.0" standalone="no"?>
<!DOCTYPE svg PUBLIC "-//W3C//DTD SVG 20010904//EN"
 "http://www.w3.org/TR/2001/REC-SVG-20010904/DTD/svg10.dtd">
<svg version="1.0" xmlns="http://www.w3.org/2000/svg"
 width="220.000000pt" height="34.000000pt" viewBox="0 0 220.000000 34.000000"
 preserveAspectRatio="xMidYMid meet">

<g transform="translate(0.000000,34.000000) scale(0.100000,-0.100000)"
fill="#000000" stroke="none">
<path d="M13 329 c14 -8 17 -25 17 -104 0 -91 1 -95 22 -95 17 0 19 3 10 12
-8 8 -12 45 -12 100 l0 88 30 0 c33 0 54 -27 39 -51 -14 -22 -11 -33 6 -19 8
7 15 25 15 40 0 32 -18 40 -95 40 -39 -1 -46 -3 -32 -11z"/>
<path d="M887 333 c8 -6 13 -45 15 -108 l3 -100 35 -3 c35 -3 35 -3 13 13 -21
15 -23 24 -23 106 l0 89 34 0 c76 0 118 -119 61 -175 -15 -16 -19 -25 -10 -25
7 0 25 14 39 31 35 41 36 106 2 146 -22 25 -31 28 -102 31 -45 2 -74 -1 -67
-5z"/>
<path d="M2145 326 c-11 -9 -14 -16 -7 -16 16 0 17 -161 0 -178 -9 -9 -3 -12
27 -12 33 0 36 2 22 12 -13 10 -17 33 -19 111 -3 96 -3 98 -23 83z"/>
<path d="M250 271 c31 -9 41 -57 13 -64 -17 -4 -17 -5 0 -6 13 -1 17 -8 15
-29 -2 -34 8 -52 30 -52 12 0 13 3 4 12 -7 7 -12 37 -12 68 0 62 -12 80 -50
79 l-25 -1 25 -7z"/>
<path d="M373 273 c-10 -3 -10 -10 -2 -25 6 -12 9 -43 7 -69 -4 -37 -2 -49 8
-49 11 0 14 19 14 75 0 73 -2 79 -27 68z"/>
<path d="M430 269 c-13 -9 -13 -10 2 -6 34 11 50 -15 47 -76 -3 -46 -1 -57 11
-57 13 0 15 11 10 63 -3 34 -9 68 -13 75 -10 15 -37 15 -57 1z"/>
<path d="M645 266 c11 -8 24 -12 28 -9 11 7 -12 23 -32 23 -11 0 -9 -4 4 -14z"/>
<path d="M725 255 c-16 -15 -25 -36 -25 -55 0 -38 39 -80 75 -80 65 0 100 93
52 138 -30 28 -46 29 -21 1 22 -24 25 -89 5 -113 -18 -22 -58 -20 -71 3 -5 11
-10 38 -10 60 0 30 6 44 22 55 12 9 17 16 10 16 -7 0 -24 -11 -37 -25z"/>
<path d="M1135 266 c-11 -8 -17 -18 -12 -22 4 -4 13 0 20 10 19 25 51 17 54
-14 3 -21 -5 -29 -39 -45 -48 -23 -54 -33 -34 -60 13 -18 18 -19 47 -8 22 9
37 9 43 3 6 -6 16 -10 24 -10 12 0 12 2 1 17 -8 9 -16 43 -19 77 -5 59 -6 61
-35 64 -16 2 -39 -4 -50 -12z m65 -85 c0 -26 -27 -52 -45 -45 -21 8 -19 41 3
53 27 16 42 13 42 -8z"/>
<path d="M1312 205 c44 -84 41 -111 -13 -122 -32 -6 -40 -23 -11 -23 31 0 48
21 99 123 42 82 47 97 32 97 -11 0 -16 -5 -14 -12 3 -7 -6 -35 -18 -63 l-24
-50 -22 49 c-12 28 -19 56 -17 63 4 9 -4 13 -23 13 l-28 0 39 -75z"/>
<path d="M1487 268 c-39 -31 -42 -107 -4 -133 25 -17 83 -20 92 -5 4 7 -2 9
-19 4 -19 -4 -31 0 -50 20 -28 27 -32 50 -16 90 10 28 46 36 67 15 6 -6 17 -8
23 -4 9 6 9 10 -1 16 -21 13 -73 11 -92 -3z"/>
<path d="M1630 260 c-31 -31 -27 -93 6 -119 35 -28 69 -26 99 4 51 51 18 135
-53 135 -19 0 -40 -8 -52 -20z m90 -9 c5 -11 10 -34 10 -51 0 -44 -17 -70 -45
-70 -14 0 -29 8 -35 19 -14 27 -13 94 2 109 18 18 56 14 68 -7z"/>
<path d="M1822 199 c21 -45 43 -78 47 -73 4 5 20 38 35 74 15 36 33 68 39 72
7 5 1 8 -15 8 -19 0 -26 -4 -22 -13 3 -8 -4 -36 -14 -63 l-19 -48 -28 53 c-21
43 -24 55 -13 62 9 6 3 9 -18 9 l-31 0 39 -81z"/>
<path d="M1986 264 c-20 -19 -20 -24 -1 -24 8 0 15 7 15 16 0 10 7 14 23 12
26 -3 37 -46 15 -59 -10 -7 -10 -9 0 -9 19 0 14 -48 -7 -59 -14 -8 -22 -7 -30
3 -13 15 -5 46 12 46 6 0 8 3 5 6 -13 13 -48 -18 -48 -42 0 -32 26 -42 61 -22
23 14 28 14 33 2 3 -8 13 -14 23 -14 13 0 14 3 5 12 -7 7 -12 37 -12 68 0 31
-5 61 -12 68 -17 17 -64 15 -82 -4z"/>
<path d="M200 255 c-10 -12 -10 -15 4 -15 9 0 16 7 16 15 0 8 -2 15 -4 15 -2
0 -9 -7 -16 -15z"/>
<path d="M566 248 c-25 -35 -20 -83 10 -107 15 -12 38 -21 53 -20 l26 1 -24 7
c-13 3 -33 19 -45 34 -17 24 -19 32 -9 67 12 46 10 49 -11 18z"/>
<path d="M86 241 c-4 -5 3 -12 14 -16 25 -8 37 -52 21 -77 -13 -20 -2 -25 17
-6 22 22 14 65 -17 88 -17 11 -32 16 -35 11z"/>
<path d="M199 174 c-16 -19 -2 -47 27 -53 18 -3 18 -3 1 16 -10 12 -15 27 -11
37 8 20 0 21 -17 0z"/>
<path d="M910 40 l0 -30 65 0 65 0 0 30 0 30 -65 0 -65 0 0 -30z"/>
</g>
</svg>
