<?xml version="1.0" standalone="no"?>
<!DOCTYPE svg PUBLIC "-//W3C//DTD SVG 20010904//EN"
 "http://www.w3.org/TR/2001/REC-SVG-20010904/DTD/svg10.dtd">
<svg version="1.0" xmlns="http://www.w3.org/2000/svg"
 width="1400.000000pt" height="932.000000pt" viewBox="0 0 1400.000000 932.000000"
 preserveAspectRatio="xMidYMid meet">

<g transform="translate(0.000000,932.000000) scale(0.100000,-0.100000)"
fill="#000000" stroke="none">
<path d="M0 4660 l0 -4660 7000 0 7000 0 0 4660 0 4660 -7000 0 -7000 0 0
-4660z m7890 2311 c465 -43 889 -120 1001 -182 158 -88 241 -194 282 -359 28
-114 45 -194 52 -240 4 -25 13 -79 21 -120 7 -41 15 -93 18 -115 2 -22 11
-107 20 -190 9 -82 21 -191 26 -241 49 -463 35 -1496 -26 -1979 -8 -66 -19
-154 -24 -195 -24 -192 -80 -455 -116 -547 -88 -221 -243 -309 -679 -382 -495
-83 -885 -106 -1655 -98 -597 7 -858 27 -1275 98 -518 89 -652 191 -731 557
-20 92 -54 284 -64 362 -71 555 -74 614 -74 1320 0 435 4 682 12 760 6 63 16
165 22 225 34 378 112 792 172 915 18 36 81 121 109 147 111 102 322 162 794
227 376 52 661 65 1340 61 456 -3 588 -7 775 -24z"/>
<path d="M5311 4998 c-95 -16 -151 -85 -151 -185 0 -51 5 -66 30 -101 71 -98
208 -111 298 -28 37 33 54 74 54 131 1 125 -101 206 -231 183z"/>
<path d="M8480 4925 c-36 -7 -121 -23 -190 -35 -69 -13 -152 -28 -185 -34
l-60 -12 -3 -92 -3 -92 276 0 275 0 0 140 c0 161 10 149 -110 125z"/>
<path d="M6010 4817 c-58 -11 -122 -24 -142 -29 l-38 -9 0 -144 0 -145 -85 0
-85 0 0 -125 0 -125 85 0 85 0 0 -287 c0 -308 7 -367 55 -463 73 -145 253
-202 518 -164 l37 6 0 121 0 122 -84 -3 c-107 -4 -145 10 -174 67 -21 40 -22
54 -22 321 l0 280 144 0 145 0 3 103 c5 163 21 147 -148 147 l-144 0 0 175 0
175 -22 -1 c-13 -1 -70 -10 -128 -22z"/>
<path d="M6980 4514 c-96 -9 -218 -35 -327 -69 -15 -5 -19 -255 -4 -255 5 0
28 7 52 15 85 30 224 56 309 57 98 2 169 -18 216 -60 41 -36 54 -63 54 -111
l0 -41 -112 0 c-314 0 -509 -100 -568 -289 -25 -78 -25 -128 -2 -209 26 -92
79 -154 171 -200 74 -37 76 -37 195 -37 143 1 189 17 268 96 52 52 56 51 60
-21 l3 -45 153 -3 152 -3 0 368 c-1 408 -8 477 -66 583 -92 168 -289 248 -554
224z m308 -713 c9 -163 -72 -264 -213 -264 -69 0 -132 27 -158 67 -24 36 -22
120 2 160 40 64 137 96 281 93 l85 -2 3 -54z"/>
<path d="M5190 3915 l0 -575 160 0 160 0 0 575 0 575 -160 0 -160 0 0 -575z"/>
<path d="M7783 4063 c4 -459 4 -463 59 -571 27 -53 104 -124 167 -154 39 -18
64 -22 161 -22 136 -1 180 15 263 95 28 27 52 47 54 45 3 -2 7 -29 10 -60 l6
-56 153 0 154 0 0 575 0 575 -165 0 -165 0 0 -384 c0 -364 -1 -386 -20 -429
-31 -69 -78 -100 -157 -105 -82 -6 -124 15 -161 78 l-27 45 -3 398 -3 397
-165 0 -165 0 4 -427z"/>
</g>
</svg>
