<?xml version="1.0" standalone="no"?>
<!DOCTYPE svg PUBLIC "-//W3C//DTD SVG 20010904//EN"
 "http://www.w3.org/TR/2001/REC-SVG-20010904/DTD/svg10.dtd">
<svg version="1.0" xmlns="http://www.w3.org/2000/svg"
 width="360.000000pt" height="206.000000pt" viewBox="0 0 360.000000 206.000000"
 preserveAspectRatio="xMidYMid meet">

<g transform="translate(0.000000,206.000000) scale(0.100000,-0.100000)"
fill="#000000" stroke="none">
<path d="M1765 741 c-64 -17 -107 -42 -159 -91 -246 -233 -70 -664 261 -637
201 16 350 221 313 430 -31 170 -160 291 -322 302 -34 2 -76 1 -93 -4z m146
-168 c47 -40 79 -115 79 -187 0 -83 -18 -134 -66 -183 -36 -38 -45 -43 -87
-43 -54 0 -96 30 -130 94 -17 33 -22 58 -22 126 0 68 5 93 22 126 50 95 137
123 204 67z"/>
<path d="M2519 737 c-137 -39 -230 -144 -259 -295 -31 -154 57 -330 198 -399
49 -24 69 -28 142 -28 71 0 94 4 140 26 73 34 135 99 174 179 28 59 31 74 31
160 0 84 -3 103 -29 157 -34 74 -113 154 -183 184 -60 26 -154 33 -214 16z
m148 -157 c83 -50 115 -219 62 -325 -45 -90 -129 -120 -199 -72 -83 55 -111
217 -57 323 44 87 124 117 194 74z"/>
<path d="M190 726 c-98 -26 -154 -81 -172 -169 -10 -49 -9 -58 15 -110 27 -60
80 -104 156 -128 65 -21 129 -58 136 -78 8 -27 -11 -60 -41 -71 -47 -18 -106
-12 -220 25 -20 6 -23 0 -39 -65 -21 -85 -23 -82 77 -105 226 -51 409 43 411
213 0 91 -45 153 -143 194 -158 67 -179 82 -164 122 14 37 91 46 184 22 63
-17 70 -12 70 49 0 78 -53 115 -162 114 -35 0 -83 -6 -108 -13z"/>
<path d="M1170 726 c-108 -30 -187 -92 -229 -179 -129 -263 38 -537 326 -537
61 0 166 20 180 34 3 3 -1 35 -8 71 l-13 65 -35 -7 c-20 -4 -62 -7 -93 -6
-130 3 -203 80 -203 213 0 152 106 231 270 203 33 -6 64 -7 69 -2 5 4 9 26 9
49 0 72 -58 111 -165 109 -35 0 -83 -6 -108 -13z"/>
<path d="M3125 729 c-38 -5 -76 -11 -83 -14 -11 -4 -13 -68 -10 -345 l3 -341
25 -7 c42 -12 281 -7 342 6 116 27 188 103 188 200 0 77 -32 128 -104 165
l-30 15 32 16 c49 25 82 76 82 125 0 151 -160 216 -445 180z m243 -152 c20
-20 20 -73 0 -93 -20 -20 -91 -36 -123 -28 -24 6 -25 10 -25 74 0 67 1 69 28
72 42 5 102 -8 120 -25z m-11 -267 c55 -33 56 -102 2 -142 -16 -12 -44 -20
-80 -21 l-54 -2 -3 79 c-2 44 -1 85 2 93 8 21 95 16 133 -7z"/>
<path d="M610 380 l0 -350 95 0 95 0 0 314 c0 300 -1 314 -20 339 -23 29 -74
47 -132 47 l-38 0 0 -350z"/>
</g>
</svg>
