<?xml version="1.0" standalone="no"?>
<!DOCTYPE svg PUBLIC "-//W3C//DTD SVG 20010904//EN"
 "http://www.w3.org/TR/2001/REC-SVG-20010904/DTD/svg10.dtd">
<svg version="1.0" xmlns="http://www.w3.org/2000/svg"
 width="2272.000000pt" height="1704.000000pt" viewBox="0 0 2272.000000 1704.000000"
 preserveAspectRatio="xMidYMid meet">

<g transform="translate(0.000000,1704.000000) scale(0.100000,-0.100000)"
fill="#000000" stroke="none">
<path d="M1360 8525 l0 -2005 1955 0 1955 0 2 988 c2 543 2 1445 0 2005 l-2
1017 -1955 0 -1955 0 0 -2005z m3230 0 l0 -65 -1272 2 -1273 3 -3 63 -3 62
1276 0 1275 0 0 -65z"/>
<path d="M9190 10519 c-334 -43 -627 -260 -745 -550 -89 -220 -79 -503 25
-714 167 -337 561 -539 971 -496 506 53 841 401 843 876 0 185 -38 324 -130
472 -186 299 -570 463 -964 412z m326 -299 c125 -32 199 -73 285 -159 85 -85
128 -162 155 -277 21 -92 15 -253 -15 -345 -44 -139 -152 -263 -286 -330 -99
-49 -191 -69 -320 -69 -129 0 -220 20 -322 70 -134 66 -231 178 -284 327 -29
82 -37 254 -15 347 51 215 235 393 456 440 99 22 252 20 346 -4z"/>
<path d="M11357 10514 c-204 -31 -392 -122 -526 -254 -176 -173 -254 -364
-254 -620 0 -464 313 -807 798 -875 86 -12 310 -6 406 10 172 30 336 95 471
186 l57 39 -77 120 c-42 65 -80 119 -84 120 -4 0 -39 -21 -79 -46 -148 -96
-278 -134 -479 -141 -176 -6 -257 9 -379 67 -151 72 -263 214 -301 379 -17 73
-15 233 4 304 36 132 136 267 249 335 131 79 306 113 483 93 163 -19 291 -65
425 -154 31 -20 59 -37 63 -37 8 0 156 225 156 237 0 14 -128 93 -223 138
-210 100 -473 136 -710 99z"/>
<path d="M7080 10509 c-387 -43 -610 -236 -587 -510 15 -180 143 -311 377
-387 94 -31 210 -56 420 -92 231 -40 318 -62 397 -101 101 -49 132 -117 95
-202 -54 -121 -224 -174 -529 -164 -232 7 -380 45 -594 152 l-90 46 -21 -48
c-11 -26 -38 -85 -59 -131 l-38 -82 22 -15 c84 -54 337 -150 477 -179 292 -62
648 -37 859 60 194 89 301 240 301 423 -1 131 -36 217 -125 307 -115 117 -291
180 -685 249 -113 20 -232 43 -265 51 -159 39 -225 89 -225 169 0 115 145 175
422 175 179 0 370 -39 561 -114 l88 -34 59 125 c33 69 60 127 60 128 0 7 -230
98 -300 118 -181 53 -441 76 -620 56z"/>
<path d="M12640 9640 l0 -840 155 0 155 0 -2 838 -3 837 -152 3 -153 3 0 -841z"/>
<path d="M13397 10473 c-4 -3 -7 -381 -7 -840 l0 -833 775 0 775 0 0 140 0
140 -620 0 -620 0 0 220 0 220 460 0 460 0 0 135 0 135 -460 0 -460 0 0 205 0
205 595 0 596 0 -3 138 -3 137 -741 3 c-407 1 -744 -1 -747 -5z"/>
<path d="M15100 10340 l0 -140 335 0 335 0 0 -700 0 -700 150 0 150 0 0 700 0
700 335 0 335 0 0 140 0 140 -820 0 -820 0 0 -140z"/>
<path d="M16987 10473 c-4 -3 -7 -381 -7 -840 l0 -833 775 0 775 0 0 140 0
140 -620 0 -620 0 0 220 0 220 460 0 460 0 0 135 0 135 -460 0 -460 0 0 205 0
205 595 0 596 0 -3 138 -3 137 -741 3 c-407 1 -744 -1 -747 -5z"/>
<path d="M7140 8270 c-298 -63 -524 -236 -645 -493 -43 -90 -63 -168 -74 -279
-42 -445 208 -808 642 -932 309 -89 705 -35 1007 136 l75 43 3 328 2 327 -145
0 -145 0 0 -241 0 -240 -52 -23 c-78 -34 -213 -66 -323 -75 -326 -27 -579 91
-689 322 -43 90 -56 154 -56 269 0 232 113 420 311 516 116 57 219 76 374 69
190 -8 354 -60 495 -156 l58 -40 80 124 80 123 -68 45 c-138 92 -290 153 -454
182 -124 21 -365 19 -476 -5z"/>
<path d="M8550 7405 l0 -835 775 0 775 0 0 135 0 135 -622 2 -623 3 -3 218 -2
217 465 0 465 0 0 140 0 140 -465 0 -465 0 2 203 3 202 593 3 592 2 0 135 0
135 -745 0 -745 0 0 -835z"/>
<path d="M10390 7405 l0 -835 151 0 151 0 -3 631 -4 630 20 -24 c11 -14 250
-298 530 -631 l510 -606 158 0 157 0 0 835 0 835 -150 0 -150 0 0 -407 c0
-225 5 -507 10 -627 5 -121 8 -221 6 -223 -2 -2 -243 280 -536 627 l-533 630
-158 0 -159 0 0 -835z"/>
<path d="M12480 7405 l0 -835 775 0 775 0 0 135 0 135 -620 0 -620 0 0 220 0
220 460 0 460 0 0 140 0 140 -460 0 -460 0 0 205 0 205 595 0 595 0 0 135 0
135 -750 0 -750 0 0 -835z"/>
<path d="M14350 7405 l0 -835 150 0 150 0 0 305 0 305 248 0 247 0 229 -305
228 -305 190 0 c151 0 188 3 181 13 -257 324 -470 608 -461 611 7 2 35 9 62
16 134 31 283 146 339 263 31 64 57 169 57 234 0 68 -26 185 -56 248 -39 82
-129 175 -211 218 -129 67 -134 67 -776 67 l-577 0 0 -835z m1135 550 c117
-31 178 -112 179 -238 0 -78 -15 -119 -63 -170 -72 -78 -131 -87 -583 -87
l-368 0 0 248 c0 137 3 252 7 255 3 4 178 7 388 7 311 0 392 -3 440 -15z"/>
<path d="M16874 8208 c-36 -70 -766 -1604 -771 -1621 -5 -16 5 -17 158 -15
l163 3 90 197 91 198 445 0 445 0 91 -198 90 -197 162 -3 c89 -1 162 1 162 5
0 5 -177 379 -394 833 l-393 825 -161 3 -161 2 -17 -32z m350 -657 c75 -161
136 -295 136 -297 0 -2 -139 -4 -310 -4 -170 0 -310 2 -310 4 0 5 285 617 301
648 12 22 13 22 29 -17 10 -22 79 -172 154 -334z"/>
<path d="M18230 7405 l0 -835 700 0 700 0 0 135 0 135 -547 2 -548 3 -3 698
-2 697 -150 0 -150 0 0 -835z"/>
<path d="M19830 7405 l0 -835 765 0 765 0 0 135 0 135 -610 0 -610 0 0 220 0
220 460 0 460 0 0 140 0 140 -460 0 -460 0 0 205 0 205 595 0 595 0 0 135 0
135 -750 0 -750 0 0 -835z"/>
</g>
</svg>
