<?xml version="1.0" standalone="no"?>
<!DOCTYPE svg PUBLIC "-//W3C//DTD SVG 20010904//EN"
 "http://www.w3.org/TR/2001/REC-SVG-20010904/DTD/svg10.dtd">
<svg version="1.0" xmlns="http://www.w3.org/2000/svg"
 width="1189.000000pt" height="315.000000pt" viewBox="0 0 1189.000000 315.000000"
 preserveAspectRatio="xMidYMid meet">

<g transform="translate(0.000000,315.000000) scale(0.100000,-0.100000)"
fill="#000000" stroke="none">
<path d="M400 1720 l0 -1070 1040 0 1040 0 0 1070 0 1070 -1040 0 -1040 0 0
-1070z m1718 -2 c-2 -18 -6 -32 -10 -30 -5 1 -309 2 -678 2 l-670 0 0 30 0 30
681 0 680 0 -3 -32z"/>
<path d="M4533 2775 c-146 -33 -292 -140 -345 -255 -69 -147 -56 -337 30 -462
62 -89 139 -146 252 -189 85 -32 254 -34 340 -5 147 50 239 126 297 244 l38
76 0 131 c-1 118 -3 135 -26 185 -58 123 -156 211 -288 255 -93 32 -214 40
-298 20z m274 -174 c62 -27 126 -93 156 -159 25 -55 28 -161 8 -233 -54 -191
-324 -279 -512 -166 -174 104 -200 347 -55 493 74 74 134 95 256 91 72 -3 108
-9 147 -26z"/>
<path d="M5734 2780 c-168 -26 -319 -131 -380 -265 -80 -175 -43 -398 88 -529
112 -111 271 -157 473 -136 100 10 141 22 231 68 91 46 93 50 45 121 l-41 60
-63 -34 c-90 -50 -173 -68 -282 -63 -106 5 -162 26 -228 87 -64 60 -91 126
-92 226 0 93 21 148 80 213 106 118 318 135 501 41 42 -22 77 -39 79 -39 1 0
19 26 40 57 28 42 35 61 28 72 -14 23 -148 88 -213 105 -73 18 -203 26 -266
16z"/>
<path d="M3380 2766 c-118 -27 -186 -72 -225 -149 -57 -116 -8 -231 129 -296
56 -28 116 -42 346 -85 101 -19 169 -51 190 -88 22 -41 -6 -93 -68 -121 -41
-19 -64 -22 -187 -22 -151 1 -184 7 -313 64 -39 17 -73 31 -75 31 -3 0 -19
-30 -36 -66 -37 -78 -38 -75 73 -118 129 -51 209 -66 340 -66 227 0 357 54
418 173 27 54 26 144 -2 203 -49 99 -155 147 -462 204 -129 23 -171 40 -194
75 -20 31 -9 65 30 90 69 45 273 38 436 -14 52 -17 95 -29 96 -28 16 22 55
130 48 136 -5 4 -40 19 -79 34 -134 51 -344 70 -465 43z"/>
<path d="M6412 2313 l3 -448 80 0 80 0 2 290 c1 160 -1 361 -4 448 l-6 157
-79 0 -78 0 2 -447z"/>
<path d="M6815 2748 c-3 -7 -4 -209 -3 -448 l3 -435 396 -3 c218 -1 404 1 413
4 14 5 16 19 14 78 l-3 71 -328 0 -327 0 0 118 0 117 245 0 245 0 0 70 0 70
-245 0 -245 0 0 110 0 110 315 0 315 0 0 75 0 75 -395 0 c-307 0 -397 -3 -400
-12z"/>
<path d="M7722 2688 l3 -73 178 -3 177 -2 0 -369 0 -369 23 -6 c12 -3 48 -6
80 -6 l57 0 0 375 0 375 180 0 180 0 0 75 0 75 -440 0 -441 0 3 -72z"/>
<path d="M8728 2559 c-2 -110 -1 -312 2 -447 l5 -247 408 -2 408 -3 -3 78 c-2
52 -7 77 -15 78 -7 1 -155 2 -328 3 l-315 1 0 115 0 115 245 0 245 0 0 70 0
70 -245 0 -245 0 0 110 0 110 314 0 c190 0 317 4 321 10 3 5 3 39 -1 75 l-7
65 -393 0 -393 0 -3 -201z"/>
<path d="M3447 1576 c-242 -70 -387 -290 -348 -529 30 -189 166 -331 361 -378
31 -8 103 -13 165 -12 94 1 124 6 205 32 52 17 113 41 135 54 l40 23 8 89 c4
50 6 128 5 175 l-3 85 -77 3 -77 3 -3 -133 -3 -133 -80 -23 c-164 -48 -346
-14 -431 81 -56 62 -77 118 -77 209 0 68 5 87 32 143 46 92 113 142 225 165
106 22 240 -2 345 -61 l55 -31 20 26 c12 14 31 43 43 64 l22 39 -55 33 c-108
65 -174 83 -324 86 -93 2 -150 -1 -183 -10z"/>
<path d="M4230 1120 l0 -450 399 0 c220 0 406 3 415 6 12 5 16 21 16 75 l0 69
-335 0 -335 0 0 120 0 120 250 0 251 0 -3 73 -3 72 -248 0 -247 0 0 108 0 107
315 0 315 0 0 75 0 75 -395 0 -395 0 0 -450z"/>
<path d="M5210 1125 c0 -245 1 -445 3 -446 1 0 37 -3 79 -6 l78 -5 2 336 3
336 274 -325 c151 -179 279 -329 285 -332 6 -4 46 -8 88 -9 l78 -3 0 450 0
449 -82 0 -81 0 6 -337 6 -338 -22 26 c-12 14 -141 166 -285 338 l-264 311
-84 0 -84 0 0 -445z"/>
<path d="M6330 1121 l0 -450 410 0 410 -1 0 75 0 75 -330 0 -330 0 0 114 c0
88 3 115 14 119 8 3 118 5 245 4 l231 -2 0 78 0 78 -227 -1 c-126 -1 -236 -1
-245 -1 -16 1 -18 13 -18 106 l0 105 318 2 317 3 0 70 0 70 -397 3 -398 2 0
-449z"/>
<path d="M7322 1123 l3 -448 78 -1 77 0 0 163 0 163 134 0 134 0 123 -166 124
-166 65 6 c36 3 80 6 97 6 l33 0 -103 133 c-56 72 -112 146 -124 162 l-21 31
47 17 c102 36 162 98 186 195 27 103 -2 199 -82 272 -79 74 -79 74 -446 78
l-327 4 2 -449z m632 282 c18 -9 40 -28 49 -44 22 -37 22 -114 1 -147 -35 -53
-61 -58 -301 -62 l-223 -4 0 120 c0 66 3 127 6 136 9 23 420 24 468 1z"/>
<path d="M8651 1511 c-17 -33 -92 -189 -167 -348 -210 -443 -224 -472 -224
-478 0 -3 39 -4 87 -3 l87 3 45 103 46 102 239 -2 239 -3 46 -102 46 -103 87
0 87 0 -29 63 c-111 244 -383 804 -395 813 -8 6 -49 12 -90 13 l-74 2 -30 -60z
m199 -298 l77 -168 -160 -3 c-88 -1 -162 -1 -164 1 -2 2 29 73 68 158 85 185
89 192 96 186 3 -3 40 -81 83 -174z"/>
<path d="M9392 1123 l3 -448 370 0 370 0 3 73 3 72 -289 0 -289 0 -6 68 c-4
37 -7 205 -7 375 l0 307 -80 0 -80 0 2 -447z"/>
<path d="M10250 1121 l0 -450 405 0 405 -1 0 75 0 75 -325 0 -325 0 0 114 c0
88 3 115 14 119 8 3 118 5 245 4 l231 -2 0 78 0 78 -227 -1 c-126 -1 -236 -1
-245 -1 -16 1 -18 13 -18 106 l0 105 318 2 317 3 0 70 0 70 -397 3 -398 2 0
-449z"/>
</g>
</svg>
