<?xml version="1.0" standalone="no"?>
<!DOCTYPE svg PUBLIC "-//W3C//DTD SVG 20010904//EN"
 "http://www.w3.org/TR/2001/REC-SVG-20010904/DTD/svg10.dtd">
<svg version="1.0" xmlns="http://www.w3.org/2000/svg"
 width="4000.000000pt" height="4000.000000pt" viewBox="0 0 4000.000000 4000.000000"
 preserveAspectRatio="xMidYMid meet">
<metadata>
Created by potrace 1.16, written by Peter Selinger 2001-2019
</metadata>
<g transform="translate(0.000000,4000.000000) scale(0.100000,-0.100000)"
fill="#000000" stroke="none">
<path d="M5440 26786 l-155 3 -45 -12 -45 -12 -60 -35 -60 -34 -66 -66 -65
-65 -27 -45 -27 -45 -19 -40 -20 -40 -4 -25 -5 -25 -16 -65 -15 -65 -11 -1575
-10 -1575 -2 -3875 -2 -3875 13 -30 13 -30 20 -70 19 -69 37 -60 37 -60 69
-68 69 -67 41 -21 41 -20 26 -21 27 -21 78 -19 79 -19 96 0 97 0 98 20 99 20
25 18 25 18 54 20 53 19 23 21 22 20 46 27 46 27 8 14 8 13 48 27 47 28 0 9 0
8 48 28 47 27 8 13 8 13 37 20 37 21 41 32 41 32 29 17 29 18 60 45 60 44 53
32 52 31 8 13 7 12 35 18 35 18 26 21 26 21 44 28 44 27 35 25 35 25 30 25 30
24 50 35 50 35 53 31 52 32 0 7 0 7 43 24 42 23 31 26 31 26 54 38 54 38 30
20 30 19 60 45 60 45 45 29 45 29 25 21 25 21 45 30 45 30 35 25 35 24 40 31
40 31 35 24 35 24 37 21 37 20 33 29 33 28 40 26 40 27 50 35 50 35 55 36 55
36 10 12 10 12 55 36 55 36 50 41 50 41 29 18 29 17 42 35 43 35 66 40 67 40
32 22 32 22 50 36 50 35 60 45 60 45 48 31 47 31 0 8 0 8 43 25 42 26 25 23
25 23 44 30 43 30 34 21 34 21 28 25 27 26 35 17 35 18 33 28 33 29 8 0 9 0
40 33 39 32 44 28 44 28 55 40 55 40 65 44 65 45 45 35 45 35 48 31 47 31 0 8
0 9 48 27 47 27 25 22 25 23 32 16 32 16 25 23 24 22 66 45 67 45 42 32 42 32
38 21 37 20 0 9 0 9 53 31 52 32 50 34 50 35 35 30 35 30 50 40 50 40 6 0 7 0
48 40 49 40 11 0 11 0 19 21 19 21 50 34 50 34 60 45 60 45 29 17 29 18 31 26
31 26 30 16 30 15 40 36 39 35 28 12 28 11 0 9 0 8 53 36 52 35 60 45 60 45
50 35 50 35 60 44 60 44 53 39 54 38 34 21 34 20 22 21 23 21 52 26 52 26 8
13 8 14 43 27 42 26 0 8 0 7 45 28 45 29 0 9 0 8 61 43 61 43 52 37 51 37 50
27 50 27 43 36 44 36 50 52 49 51 29 45 28 45 12 7 12 7 20 47 19 46 19 20 19
20 19 75 19 75 12 48 11 47 0 43 0 42 -20 100 -20 100 -11 45 -12 45 -16 20
-17 20 -17 35 -17 35 -36 45 -35 45 -62 68 -62 69 -42 24 -41 25 -13 15 -12
15 -36 15 -36 15 -25 23 -25 24 -33 17 -34 16 -71 50 -72 50 -31 22 -32 22
-28 18 -29 17 -35 25 -35 24 -35 26 -35 26 -42 27 -41 27 -89 59 -88 59 -39
26 -38 26 -48 30 -48 30 -49 29 -48 29 -24 16 -23 16 -48 30 -47 30 -42 30
-43 30 -31 26 -32 26 -35 18 -35 18 -32 26 -32 26 -66 45 -66 45 -32 26 -32
26 -45 23 -45 23 -33 28 -33 29 -13 0 -13 0 -40 29 -40 29 -34 17 -34 18 -33
28 -33 29 -11 0 -10 0 -35 30 -34 30 -49 25 -49 25 -6 10 -6 10 -48 24 -47 24
-14 17 -14 17 -46 23 -46 23 -14 17 -14 17 -45 24 -46 24 -50 35 -50 34 -25
19 -25 19 -35 18 -35 17 -28 26 -28 27 -39 20 -39 20 -108 74 -108 74 -33 28
-33 29 -13 0 -13 0 -40 29 -41 29 -38 20 -39 20 -20 22 -20 22 -30 12 -30 13
-42 34 -42 34 -48 30 -47 30 -36 20 -35 21 -44 32 -44 32 -8 0 -8 0 -104 75
-105 75 -10 0 -10 0 -38 30 -39 31 -50 34 -50 35 -50 24 -50 24 -20 22 -20 22
-35 14 -35 15 -35 27 -35 28 -75 44 -75 44 -40 26 -40 27 -101 67 -101 66 -18
20 -18 20 -12 0 -12 0 -44 33 -44 33 -49 30 -48 29 -37 25 -38 25 -64 42 -64
42 -30 21 -30 20 -60 39 -60 38 -48 29 -48 29 -43 25 -42 25 -38 30 -39 30
-33 20 -33 20 -76 52 -75 53 -38 19 -38 20 -13 15 -14 16 -41 20 -41 20 -50
34 -50 35 -30 24 -30 24 -40 22 -40 21 -66 42 -66 43 -73 50 -73 50 -37 25
-37 25 -39 28 -39 28 -35 24 -35 24 -46 25 -45 24 -14 17 -14 17 -45 23 -46
23 -65 51 -65 50 -65 36 -65 36 -25 14 -25 15 -65 26 -65 26 -50 15 -50 16
-155 3z m45 -347 l40 -7 50 -17 50 -18 30 -22 30 -22 45 -23 45 -23 25 -19 25
-19 55 -35 55 -36 30 -15 30 -16 31 -26 31 -26 49 -28 49 -28 35 -24 35 -24
35 -26 35 -26 49 -32 49 -32 32 -20 32 -20 34 -28 34 -29 49 -31 49 -32 54
-33 53 -33 0 -9 0 -10 40 -20 39 -20 33 -29 33 -28 33 -17 33 -17 11 -24 11
-25 18 -5 19 -6 42 -35 42 -36 37 -15 38 -15 15 -23 15 -23 36 -12 35 -12 11
-19 10 -20 46 -22 47 -22 4 -12 4 -13 -36 0 -35 0 -22 30 -22 29 -27 6 -27 6
-24 25 -24 26 -48 20 -48 21 -13 18 -13 19 -39 16 -39 16 -25 17 -25 18 -44
17 -45 17 -27 24 -28 23 -48 18 -48 17 -20 17 -20 18 -35 17 -35 18 -40 32
-40 33 -42 21 -42 21 -6 10 -6 10 -57 31 -57 30 -35 21 -35 21 -85 56 -85 56
-56 30 -57 30 -70 37 -71 38 -6 11 -7 11 -67 30 -66 29 -20 19 -20 19 -75 16
-75 17 -27 5 -26 5 -58 -17 -57 -16 -20 19 -20 20 6 24 6 24 23 34 23 33 26
19 25 19 50 7 49 8 40 -7z m2035 -2500 l45 1 114 -11 114 -10 56 -18 56 -18
95 -58 95 -59 77 -78 77 -79 41 -76 41 -77 30 -120 29 -120 0 -77 0 -77 -20
-103 -21 -104 -19 -25 -20 -25 -19 -35 -19 -35 -54 -62 -54 -62 -50 -40 -50
-40 -115 -56 -114 -56 -15 -15 -15 -15 0 -482 0 -482 -48 -150 -47 -150 -37
-75 -36 -75 -44 -67 -44 -68 -10 -6 -10 -6 -26 -41 -26 -42 -28 -30 -29 -30
-59 -60 -60 -60 -38 -31 -38 -31 -59 -39 -59 -39 -37 -25 -36 -25 -74 -60 -75
-60 -35 -27 -35 -28 -40 -27 -40 -27 -36 -31 -36 -30 -60 -47 -61 -48 -9 0
-10 0 -19 -21 -19 -21 -30 -15 -30 -16 -36 -31 -36 -31 -81 -58 -81 -59 -73
-70 -73 -69 -123 -121 -123 -121 -24 -47 -23 -46 -16 -13 -15 -13 -16 -49 -17
-50 -34 -56 -34 -57 0 -13 0 -13 -29 -83 -29 -83 -12 -110 -11 -109 -17 -45
-16 -45 -12 -20 -13 -20 4 -100 3 -100 12 -101 12 -100 -6 -335 -6 -334 -1
-45 0 -45 16 -45 16 -45 -1 -1025 -1 -1025 -10 -36 -9 -36 -25 -11 -26 -12
-40 0 -40 0 -32 14 -32 14 -30 31 -30 32 3 1025 2 1025 14 32 13 32 6 45 6 45
-7 183 -8 183 8 117 8 117 5 245 6 245 -28 55 -28 55 1 65 1 65 38 170 38 170
17 35 17 35 13 40 12 40 46 100 46 100 44 65 44 65 83 95 82 95 75 75 75 75
43 25 43 25 46 42 46 42 82 68 83 68 56 45 57 45 47 40 47 40 53 40 53 40 42
35 43 35 66 50 66 50 48 32 47 31 25 24 25 23 45 28 45 29 10 12 10 11 75 60
75 60 41 45 40 45 48 72 47 72 16 48 16 48 24 35 23 35 0 15 0 15 29 82 29 81
7 451 8 451 -19 21 -19 21 -27 14 -27 14 -43 0 -43 0 -35 20 -35 20 -50 25
-50 25 -46 37 -46 38 -44 51 -44 51 -37 52 -37 51 -16 47 -16 48 -25 62 -24
61 0 134 1 133 18 50 18 50 20 55 20 55 54 76 54 76 30 39 29 39 53 43 53 42
88 46 87 45 70 13 70 14 45 1z m2964 -1470 l120 1 80 -24 81 -23 42 -12 42
-12 14 -13 13 -14 55 -31 54 -31 50 -49 50 -48 36 -44 35 -44 36 -66 36 -65
21 -85 22 -84 5 -100 6 -100 -26 -112 -25 -112 -24 -38 -24 -38 -26 -45 -25
-45 -74 -70 -75 -70 -34 -22 -34 -22 -30 -15 -30 -15 -67 -26 -67 -26 -58 -9
-58 -10 -95 1 -95 0 -45 9 -45 8 -85 32 -85 31 -44 35 -44 34 -31 0 -31 -1
-27 -12 -27 -12 -48 -56 -48 -56 -47 -66 -48 -65 0 -10 0 -10 -35 -42 -35 -41
-10 -37 -10 -38 -24 -33 -24 -33 -17 -76 -17 -77 -24 -63 -24 -63 -15 -87 -15
-87 -26 -90 -26 -90 -23 -70 -23 -70 -32 -85 -31 -85 -18 -20 -19 -20 -22 -45
-23 -45 -24 -29 -24 -28 -13 -32 -14 -31 -77 -84 -76 -85 -22 -15 -22 -15 -66
-55 -66 -56 -52 -38 -52 -37 -42 -22 -42 -21 -28 -23 -29 -24 -12 0 -12 0 -57
-34 -58 -35 -44 -7 -45 -6 -20 -25 -19 -25 -7 -37 -6 -36 -40 -80 -40 -80 -40
-54 -40 -53 -40 -37 -40 -36 -37 -19 -36 -19 -23 -17 -22 -18 -98 -38 -97 -39
-190 0 -190 0 -33 18 -33 18 -63 19 -63 20 -24 19 -24 18 -35 18 -35 17 -53
52 -54 51 -18 36 -19 36 -27 33 -28 32 -33 82 -33 81 -11 85 -11 85 5 81 6 81
21 54 22 54 24 64 23 64 19 21 19 21 21 35 21 35 38 35 38 36 41 31 40 31 80
40 80 40 104 22 104 23 120 -6 121 -6 63 -16 64 -15 95 -58 95 -57 61 -63 62
-63 14 -27 14 -27 18 -24 19 -24 20 -65 21 -66 16 -18 16 -18 42 0 43 0 12 15
13 16 96 64 96 65 50 36 50 36 25 27 25 27 20 14 20 15 45 51 45 51 33 37 32
37 25 49 25 49 9 5 10 6 45 93 45 92 15 85 16 85 19 50 19 50 7 50 7 50 14 61
14 61 14 34 14 35 22 84 22 85 18 30 18 30 18 45 17 45 22 30 22 30 22 50 22
50 18 20 18 20 22 39 22 39 37 45 37 45 31 31 32 31 46 54 46 55 0 40 0 41
-25 70 -25 70 0 127 0 126 21 89 20 88 42 70 41 70 75 84 75 83 44 19 43 19
32 24 32 24 75 20 75 21 25 10 25 10 119 0z m-547 -4209 l13 0 0 -10 0 -10
-26 -11 -27 -10 -6 7 -6 6 19 14 20 14 13 0z m-74 -50 l7 0 0 -11 0 -11 -34
-31 -35 -32 -39 -32 -39 -33 -11 0 -11 0 -33 -29 -33 -28 -35 -18 -35 -18 -38
-31 -38 -31 -34 -31 -33 -30 -54 -40 -53 -40 -33 -13 -32 -14 -23 -26 -22 -26
-47 -28 -48 -28 0 -7 0 -7 -55 -35 -55 -35 0 -7 0 -7 -47 -28 -48 -27 -47 -33
-46 -33 -6 -15 -5 -14 -32 -16 -32 -17 -73 -54 -73 -54 -6 -9 -5 -10 -53 -31
-52 -31 -60 -45 -60 -44 -50 -36 -50 -35 -60 -44 -60 -44 -92 -61 -91 -61 -13
-15 -13 -16 -68 -34 -68 -34 0 -8 0 -7 -53 -29 -52 -30 -40 -30 -40 -31 -31
-26 -32 -26 -37 -7 -37 -7 -5 5 -6 6 13 15 13 16 58 44 58 44 30 15 30 16 6
19 6 20 44 26 44 25 8 13 8 13 98 74 98 75 48 35 49 35 62 45 63 45 21 14 21
15 30 27 30 27 45 27 45 28 80 59 80 58 35 24 35 25 82 55 81 56 9 0 9 0 40
34 39 33 35 18 35 17 27 26 28 25 33 21 34 21 94 61 94 61 35 32 35 33 60 29
60 29 35 25 35 24 28 22 29 22 32 17 33 16 43 35 43 34 31 29 31 30 35 12 35
13 8 1z m-2450 -1750 l19 0 -12 -15 -12 -15 -14 0 -14 0 0 8 0 9 7 6 6 7 20 0z"/>
<path d="M24435 23765 l-250 4 -135 -15 -135 -14 -50 -20 -50 -20 -90 -26 -90
-26 -15 -13 -15 -13 -57 -22 -56 -21 -24 -18 -23 -18 -49 -22 -49 -21 -16 -18
-16 -18 -40 -24 -40 -24 -36 -30 -37 -31 -42 -35 -42 -35 -17 -16 -16 -17 -23
-23 -22 -24 -10 -10 -10 -10 -35 -45 -34 -45 -26 -47 -25 -47 -11 -7 -11 -7
-23 -51 -23 -52 -25 -38 -26 -37 -7 -32 -7 -32 -28 -60 -28 -60 -16 -75 -17
-75 -14 -75 -15 -75 -14 -95 -15 -95 0 -128 0 -129 15 -126 16 -127 5 -14 5
-15 24 -114 24 -114 20 -34 20 -33 21 -69 20 -69 19 -24 18 -24 26 -51 25 -50
17 -14 16 -14 16 -30 16 -31 41 -48 41 -49 43 -44 42 -45 0 -9 0 -9 18 -5 18
-6 49 -45 50 -46 40 -30 40 -29 55 -37 55 -36 56 -23 56 -23 34 -20 34 -19 60
-17 60 -18 39 -19 39 -20 61 -9 61 -9 173 -25 173 -25 148 0 147 0 229 31 229
30 82 29 82 28 58 12 59 12 40 23 40 22 55 18 55 18 65 37 65 38 22 20 22 20
40 23 41 23 25 36 25 36 2 753 3 753 -24 19 -24 20 -699 -3 -700 -3 -14 -19
-14 -20 0 -276 0 -277 18 -16 18 -16 298 -3 298 -3 22 -26 23 -27 -1 -268 -2
-268 -64 -35 -65 -34 -55 -14 -55 -14 -205 -6 -205 -5 -102 16 -103 15 -31 16
-31 16 -76 25 -77 25 -5 8 -5 8 -55 35 -55 35 -47 49 -47 49 -44 55 -44 55
-46 88 -47 89 0 20 0 20 -25 61 -24 62 -10 65 -11 65 -6 135 -7 135 12 109 12
110 45 135 44 135 19 20 19 21 15 35 14 35 39 54 39 53 53 52 53 51 30 28 31
28 48 24 48 25 37 24 36 25 57 11 57 12 66 19 66 19 129 0 129 0 150 -31 150
-30 70 -35 70 -34 12 0 11 0 45 -34 45 -35 29 -14 28 -15 22 -26 22 -25 41
-11 41 -11 18 6 18 5 18 40 18 39 19 18 20 18 30 60 30 60 31 60 32 60 37 55
36 55 21 17 21 18 0 16 0 16 -16 34 -16 34 -54 33 -54 32 0 8 0 8 -57 25 -56
25 -24 19 -24 19 -67 22 -67 22 -15 11 -15 12 -28 12 -28 12 -21 0 -21 0 -102
35 -103 36 -78 10 -79 10 -250 4z"/>
<path d="M28085 23769 l-170 -2 -108 -8 -109 -7 -76 -17 -77 -17 -10 -8 -10
-8 -95 -27 -95 -27 -31 -19 -31 -19 -43 -15 -42 -15 -42 -26 -41 -26 -49 -31
-49 -32 -37 -25 -37 -25 -48 -35 -47 -35 -87 -84 -86 -85 -25 -42 -25 -42 -39
-58 -39 -59 -17 -20 -18 -20 -23 -55 -23 -55 -17 -25 -18 -25 -21 -74 -22 -73
-18 -37 -19 -36 -30 -165 -30 -165 -11 -90 -10 -90 0 -75 0 -75 16 -70 15 -70
10 -80 9 -80 20 -103 21 -104 14 -21 13 -22 27 -82 26 -83 11 -6 10 -6 27 -62
28 -61 17 -14 17 -15 20 -35 20 -36 35 -45 36 -45 50 -53 51 -52 71 -63 71
-62 40 -31 40 -31 41 -21 40 -21 13 -15 13 -15 56 -21 55 -21 26 -18 26 -19
73 -21 73 -22 32 -19 32 -18 220 -38 220 -37 200 0 200 1 90 16 90 16 100 15
100 16 34 5 35 6 40 19 41 18 70 16 70 16 63 30 62 29 7 0 8 0 115 56 115 57
25 23 25 24 22 18 22 19 3 769 2 769 -13 23 -12 23 -25 9 -25 10 -669 0 -668
0 -22 -18 -22 -18 -4 -255 -4 -254 11 -33 11 -33 25 -10 24 -9 264 0 264 0 25
-10 25 -9 16 -30 15 -30 0 -255 0 -255 -32 -24 -33 -25 -30 -15 -30 -15 -55
-11 -55 -10 -155 -11 -155 -10 -110 10 -110 10 -55 11 -55 11 -20 12 -20 13
-72 27 -73 28 -6 9 -5 9 -42 21 -41 22 -59 51 -58 51 -60 78 -59 79 0 11 0 10
-30 46 -29 47 -16 64 -16 65 -20 54 -20 54 -11 111 -10 111 6 140 6 140 10 50
10 50 14 30 15 30 17 68 17 68 25 37 25 37 18 43 19 43 16 16 16 16 24 39 25
39 49 47 48 47 49 39 48 38 42 19 43 18 29 22 29 21 104 30 103 30 120 9 120
8 83 -9 83 -9 7 -5 8 -5 115 -26 114 -25 37 -25 38 -25 55 -21 55 -20 0 -10 0
-9 43 -26 42 -27 12 -17 12 -18 40 -16 40 -16 16 6 15 6 22 39 22 39 8 0 8 0
29 58 29 58 16 13 15 13 16 49 17 50 23 27 23 27 22 48 22 47 10 0 9 0 13 33
14 32 -5 31 -5 30 -60 40 -60 39 -42 24 -41 24 -35 22 -35 23 -55 17 -55 18
-40 23 -40 23 -70 16 -70 16 -52 25 -53 24 -157 15 -158 15 -170 -1z"/>
<path d="M21310 23712 l-15 6 -35 -8 -35 -8 -17 -22 -18 -22 0 -1602 1 -1601
8 -45 9 -44 22 -18 23 -18 350 2 350 3 20 27 20 27 5 183 5 183 1 1300 1 1300
-3 143 -3 143 -27 30 -27 29 -310 3 -310 2 -15 7z"/>
<path d="M15879 23702 l-1384 3 -17 -17 -18 -18 -1 -12 -1 -13 -4 -270 -3
-270 11 -28 11 -29 24 -9 24 -9 463 0 463 0 24 -26 24 -26 7 -561 6 -562 0
-725 1 -725 7 -20 7 -20 15 -17 15 -18 353 0 353 0 28 24 28 24 2 1296 2 1296
13 28 13 27 470 5 470 5 23 13 22 13 1 7 0 7 5 270 4 270 -6 27 -5 26 -33 16
-32 15 -1385 3z"/>
<path d="M34776 23708 l-21 -3 -766 -2 -766 -3 -24 -26 -24 -26 -2 -1606 -2
-1607 11 -35 11 -35 15 -17 15 -18 362 0 362 0 19 21 19 21 3 548 2 547 21 19
21 19 204 -2 204 -3 35 -14 35 -15 24 -54 24 -54 11 -7 11 -7 30 -59 30 -59
10 -6 11 -7 25 -51 24 -52 23 -32 22 -31 30 -52 30 -53 27 -50 27 -50 14 -16
15 -16 26 -52 26 -52 10 -6 10 -6 31 -57 30 -57 37 -56 37 -55 20 -32 20 -31
17 -30 17 -31 25 -10 24 -9 415 -2 415 -1 11 6 11 7 0 29 0 29 -56 83 -56 83
-23 46 -24 46 -24 29 -24 29 -21 42 -21 41 -9 4 -10 3 -31 63 -31 62 -9 0 -9
0 -17 37 -18 37 -43 65 -43 66 -19 25 -19 25 -22 43 -22 43 -32 43 -32 43 -17
29 -18 29 -31 50 -31 50 -29 33 -29 33 0 25 0 25 31 29 32 28 58 21 58 22 41
34 40 34 20 6 20 6 0 8 0 9 77 78 78 78 32 51 33 50 26 55 26 55 24 50 23 50
17 110 16 110 0 90 0 90 -7 75 -6 75 -10 65 -10 65 -24 50 -23 50 -26 58 -25
57 -10 0 -10 0 -17 33 -16 32 -37 38 -36 38 -24 22 -25 22 -22 21 -22 22 -34
23 -33 24 -17 17 -18 18 -37 15 -38 16 -37 25 -36 26 -79 20 -78 19 -22 14
-21 14 -89 15 -88 16 -94 15 -95 15 -20 -2z m-378 -661 l367 -4 40 -12 40 -13
15 -13 15 -13 53 -20 52 -20 45 -49 44 -48 18 -45 17 -45 13 -21 14 -22 8 -53
9 -54 -10 -70 -9 -70 -13 -20 -13 -20 -12 -37 -13 -38 -36 -38 -37 -39 -60
-41 -60 -41 -55 -20 -55 -20 -45 -17 -45 -18 -319 3 -320 2 -18 10 -19 10 -9
25 -10 25 0 405 0 404 21 21 21 21 366 -5z"/>
<path d="M18585 23699 l-780 -1 -15 -5 -15 -6 -17 -15 -18 -15 0 -1628 0
-1628 10 -25 9 -25 19 -10 19 -10 352 -2 352 -1 21 19 21 18 14 33 13 32 0
510 -1 510 11 20 10 19 17 10 17 9 191 -5 190 -5 26 -10 27 -9 35 -52 35 -52
22 -40 21 -40 34 -55 33 -55 20 -25 20 -26 16 -39 17 -40 19 -20 19 -20 20
-46 20 -46 21 -26 21 -26 15 -36 14 -36 45 -67 44 -67 19 -25 19 -25 23 -45
23 -45 22 -30 22 -30 13 -32 12 -33 39 -35 39 -35 383 0 382 0 21 -6 20 -5 23
18 23 19 -7 41 -7 42 -24 26 -24 26 -21 42 -22 42 -24 30 -24 30 -34 45 -34
45 -19 41 -19 40 -32 44 -31 43 0 13 0 12 -24 29 -23 28 -33 58 -32 57 -7 0
-8 0 -23 50 -24 51 -14 11 -14 12 -28 56 -28 56 -17 14 -17 14 -24 47 -24 48
-10 6 -11 7 -26 41 -26 42 -23 24 -24 24 0 14 0 14 33 31 32 30 55 25 55 25
68 45 68 45 72 73 72 73 31 39 30 38 46 85 45 85 28 105 27 105 10 50 10 50
-5 115 -5 115 -32 130 -31 130 -46 93 -45 92 -12 8 -12 7 -22 32 -22 31 -45
44 -44 43 -33 32 -34 32 -49 33 -50 34 -75 41 -75 40 -70 23 -70 23 -12 9 -11
9 -34 10 -33 9 -150 20 -150 20 -780 -1z m333 -649 l307 -1 73 -9 74 -10 26
-15 27 -14 45 -22 45 -22 45 -40 45 -41 22 -36 22 -35 16 -35 16 -34 5 -91 6
-90 -9 -56 -9 -56 -45 -75 -44 -75 -45 -31 -45 -32 -21 -15 -22 -16 -112 -34
-113 -35 -309 0 -309 0 -19 43 -20 42 0 398 0 397 20 20 20 20 308 0z"/>
<path d="M31284 23700 l-1173 0 -15 -22 -16 -22 0 -1636 0 -1635 13 -25 13
-25 1190 -3 1191 -2 16 18 17 19 9 49 9 49 0 225 0 225 -10 32 -10 33 -21 15
-21 15 -764 0 -763 0 -24 25 -25 24 0 305 0 304 6 17 6 16 29 14 28 15 673 0
672 0 20 20 21 21 1 277 2 277 -14 27 -14 27 -20 11 -20 11 -659 -1 -660 -1
-19 10 -19 10 -13 16 -14 17 -2 256 -1 257 9 28 10 27 18 10 19 10 753 0 753
0 13 9 13 8 7 26 7 26 -5 281 -5 282 -19 14 -20 14 -1172 0z"/>
<path d="M29745 19139 l-130 -1 -58 -9 -59 -9 -31 -16 -32 -17 -50 -25 -50
-24 -33 -27 -33 -26 -22 -21 -22 -21 -33 -41 -32 -41 -36 -68 -36 -68 -14 -90
-14 -90 0 -93 0 -93 16 -77 16 -77 13 -25 14 -25 17 -35 16 -35 34 -38 34 -37
0 -9 0 -9 38 -23 37 -23 35 -28 35 -28 15 0 16 0 50 -24 49 -24 19 -6 20 -7
120 -9 121 -9 90 10 90 10 40 21 39 20 56 20 55 21 24 21 24 21 11 30 12 30
-1 230 -2 230 -7 21 -6 21 -24 11 -23 10 -206 -5 -207 -6 -18 -13 -17 -12 1
-52 0 -51 22 -22 22 -22 73 -1 72 0 23 -8 22 -7 15 -29 15 -29 0 -68 0 -68
-19 -41 -19 -42 -39 -13 -38 -13 -115 0 -115 0 -45 22 -45 22 -35 26 -35 25
-21 35 -21 35 -20 22 -21 22 -10 35 -11 35 -16 83 -16 82 20 105 20 104 15 36
15 35 71 69 71 69 47 17 47 16 65 6 65 5 89 -15 90 -16 25 -21 26 -20 22 -16
21 -15 29 14 28 15 26 29 27 28 11 22 11 22 0 19 0 20 -17 21 -18 22 -70 25
-70 26 -60 19 -60 19 -130 -1z"/>
<path d="M34190 19134 l-136 1 -20 -3 -19 -3 -59 -15 -59 -16 -60 -33 -60 -33
-83 -74 -83 -73 0 -12 -1 -11 -34 -65 -35 -65 -10 -57 -11 -58 -6 -106 -7
-106 18 -110 18 -110 28 -44 29 -44 0 -9 0 -9 45 -53 46 -52 47 -36 47 -36 25
-7 25 -7 60 -28 60 -29 50 -6 49 -6 111 -1 110 0 59 12 58 12 46 29 46 29 10
0 9 0 34 26 33 25 16 24 16 24 -53 61 -53 60 -22 0 -22 0 -52 -35 -51 -34 -37
-11 -37 -10 -85 0 -85 0 -43 10 -43 10 -57 39 -57 40 -38 57 -39 57 -26 118
-26 119 27 123 28 122 32 48 32 48 60 43 60 43 20 6 20 6 100 5 100 5 53 -15
52 -15 28 -23 27 -23 21 -7 21 -6 21 7 20 8 37 53 36 53 -3 32 -3 32 -70 37
-70 37 -50 17 -49 17 -136 1z"/>
<path d="M15050 19125 l-95 7 -18 -20 -19 -21 -5 -610 -6 -611 18 -20 18 -20
222 0 221 0 59 11 60 11 85 28 85 29 53 33 54 33 66 57 65 57 28 48 28 48 15
31 15 31 5 29 6 29 11 89 11 88 -12 107 -12 106 -10 35 -11 35 -43 66 -43 65
-44 45 -45 44 -36 29 -37 29 -87 24 -87 24 -53 14 -53 13 -157 0 -157 0 -95 7z
m296 -205 l148 0 45 -22 46 -22 55 -57 56 -57 37 -85 37 -85 6 -84 6 -83 -15
-40 -15 -40 -26 -65 -27 -65 -38 -41 -39 -41 -79 -44 -78 -43 -132 -1 -132 0
-23 23 -23 23 -3 389 -3 390 25 25 25 25 147 0z"/>
<path d="M16910 19127 l-105 2 -21 -11 -22 -10 -11 -24 -11 -25 0 -16 0 -16
-44 -111 -44 -111 -12 -40 -13 -40 -23 -40 -23 -40 -11 -50 -11 -50 -28 -40
-28 -40 -7 -43 -6 -43 -34 -67 -33 -67 -12 -48 -12 -48 -29 -53 -30 -53 0 -20
0 -20 -30 -59 -30 -59 0 -21 0 -22 16 -6 16 -6 102 0 103 0 16 18 16 18 22 69
21 70 8 10 7 10 13 38 12 38 24 16 25 16 167 2 167 2 64 -6 64 -7 17 -21 17
-22 13 -63 12 -63 20 -39 20 -39 25 -23 26 -24 88 0 88 0 15 16 16 15 0 13 0
12 -15 51 -15 51 -24 43 -25 44 -12 50 -12 50 -28 50 -27 50 -12 45 -12 45
-19 32 -20 32 -33 98 -34 98 -31 89 -30 88 -10 12 -10 11 -19 70 -20 70 -38
80 -39 80 -105 2z m-7 -317 l14 0 16 -18 16 -18 14 -60 14 -60 15 -29 16 -30
31 -93 31 -93 0 -25 0 -25 -25 -24 -24 -25 -121 0 -122 0 -29 29 -29 29 0 25
0 24 25 49 25 49 16 75 15 75 23 51 24 52 21 21 21 21 13 0z"/>
<path d="M17856 19123 l-189 2 -27 -12 -28 -11 -6 -19 -6 -18 -1 -50 -2 -51
11 -21 11 -20 32 -7 32 -6 133 0 133 0 28 -24 28 -24 2 -498 2 -497 21 -21 21
-21 96 3 96 2 13 11 14 11 0 499 0 498 11 25 12 25 15 6 15 6 159 6 158 6 12
15 13 15 0 68 0 68 -17 17 -17 17 -28 0 -28 0 -265 -1 -265 -1 -189 2z"/>
<path d="M19346 19130 l-81 -1 -17 -10 -17 -10 -16 -51 -15 -51 -14 -21 -13
-21 -17 -60 -18 -60 -22 -40 -23 -40 -22 -69 -22 -70 -18 -35 -18 -36 -17 -64
-18 -64 -28 -56 -28 -56 -7 -40 -7 -40 -24 -44 -24 -44 -16 -60 -16 -61 -28
-55 -29 -56 -7 -28 -6 -27 12 -15 12 -15 84 0 83 0 25 10 25 9 16 25 17 25 13
63 13 63 16 37 16 38 26 17 27 17 205 -1 205 -2 29 -12 29 -12 25 -42 25 -43
28 -83 28 -84 24 -12 24 -13 87 0 86 0 16 6 16 6 0 29 0 29 -20 32 -20 33 -19
60 -19 60 -20 35 -20 35 -17 57 -16 58 -35 66 -34 65 0 24 0 23 -30 57 -30 57
-16 61 -16 61 -14 20 -14 21 -26 85 -26 85 -23 45 -23 45 -7 35 -7 35 -14 26
-13 27 -32 11 -32 11 -81 0z m-8 -320 l7 0 13 -8 12 -8 36 -60 36 -59 20 -80
20 -79 30 -56 31 -56 -7 -27 -7 -28 -18 -18 -18 -18 -119 -6 -119 -5 -21 13
-21 13 -13 32 -13 32 18 56 17 57 29 57 29 57 0 17 0 17 11 64 11 64 15 14 14
15 7 0z"/>
<path d="M21048 19128 l-83 4 -22 -18 -21 -19 -4 -617 -3 -617 13 -13 13 -13
82 -6 82 -5 22 9 22 10 8 16 8 16 0 445 0 445 -5 167 -5 167 -12 12 -13 13
-82 4z"/>
<path d="M21825 19127 l-70 0 -28 -4 -27 -4 -15 -22 -14 -22 -1 -600 -1 -600
6 -17 6 -16 22 -6 22 -6 67 0 66 0 17 6 16 6 13 27 13 26 0 361 0 361 7 12 7
11 33 0 33 0 15 -17 16 -18 20 -45 21 -45 20 -25 19 -25 58 -90 58 -90 8 -3 8
-4 40 -68 40 -69 9 -6 9 -5 7 -29 6 -28 26 -24 26 -24 23 -50 23 -50 43 -47
43 -48 78 -5 78 -5 35 15 36 15 -4 621 -4 622 -24 19 -25 20 -80 -5 -79 -5
-13 -18 -13 -18 0 -96 0 -95 0 -230 0 -230 2 -15 1 -15 -1 -28 -2 -28 -24 -24
-25 -25 -16 6 -16 7 -29 58 -30 58 -11 6 -11 7 -18 43 -18 42 -36 48 -36 47 0
13 0 13 -25 30 -25 30 -18 40 -17 39 -29 34 -28 34 -31 52 -32 52 -53 76 -53
76 -22 8 -22 8 -70 0z"/>
<path d="M23664 19123 l-475 2 -20 -7 -19 -7 -10 -26 -10 -26 0 -58 0 -58 18
-16 19 -17 161 0 162 0 20 -20 20 -20 1 -17 0 -18 -1 -482 -1 -482 20 -20 21
-21 89 0 90 0 25 10 26 9 2 512 3 512 28 21 29 21 101 -3 102 -3 53 6 53 7 15
23 16 24 -7 66 -7 66 -25 10 -25 9 -474 3z"/>
<path d="M25015 19127 l-370 2 -26 -14 -27 -14 -6 -17 -6 -16 -5 -317 -5 -316
-6 -240 -7 -240 2 -25 1 -25 11 -26 10 -26 25 -12 25 -11 394 0 394 0 15 16
16 15 1 12 0 12 5 58 5 57 -26 26 -26 26 -268 -3 -269 -3 -16 13 -16 13 -9 37
-9 36 -1 104 0 104 14 27 14 28 16 6 17 6 222 0 223 0 27 21 26 20 0 55 0 54
-18 18 -19 19 -214 -5 -214 -4 -27 11 -27 10 -17 26 -17 26 -1 87 -2 87 13 33
12 32 13 0 13 1 267 2 267 2 16 16 16 15 5 35 6 35 -11 42 -12 42 -22 12 -22
13 -370 2z"/>
<path d="M26038 19127 l-83 3 -22 -9 -22 -10 -10 -19 -10 -18 -1 -595 -2 -594
7 -17 7 -17 30 -10 31 -11 362 0 363 0 22 18 22 18 5 70 5 69 -22 20 -22 20
-255 0 -255 0 -18 22 -17 22 -7 63 -8 63 3 442 3 443 -12 12 -12 12 -82 3z"/>
<path d="M27258 19129 l-63 -1 -25 -7 -25 -7 -11 -33 -11 -33 -2 -588 -2 -589
19 -19 19 -19 386 -2 386 -2 21 21 20 20 0 64 0 64 -18 23 -19 22 -249 0 -249
0 -27 28 -28 27 0 501 0 500 -30 16 -29 15 -63 -1z"/>
<path d="M28506 19129 l-61 -2 -23 -4 -22 -4 -18 -27 -17 -26 -3 -561 -2 -560
5 -42 6 -43 15 -15 15 -15 88 0 87 0 20 14 19 14 -3 619 -2 618 -21 18 -21 17
-62 -1z"/>
<path d="M31090 19128 l-365 0 -31 -13 -31 -13 1 -623 1 -624 35 -15 35 -16
392 6 392 5 12 12 12 12 5 50 4 50 -6 34 -7 35 -17 8 -17 8 -261 1 -260 2 -21
12 -22 11 -11 56 -12 56 4 89 3 89 25 25 25 25 224 1 224 1 23 23 24 24 0 54
0 54 -21 19 -21 19 -216 2 -217 2 -21 5 -20 5 -15 27 -14 27 0 103 0 103 18
18 18 18 257 1 257 0 17 2 17 2 16 17 17 16 -7 61 -6 61 -5 17 -5 17 -32 9
-32 10 -365 0z"/>
<path d="M32139 19126 l-94 4 -25 -13 -25 -13 -7 -114 -7 -115 -5 -489 -4
-488 10 -29 10 -29 36 -10 37 -10 43 0 43 0 33 14 34 14 8 13 8 14 1 368 0
368 15 9 15 10 25 -2 25 -3 35 -61 35 -61 38 -54 38 -54 36 -55 37 -55 12 -10
13 -10 35 -60 35 -60 22 -40 21 -40 23 -30 22 -30 18 -35 18 -35 44 -51 44
-51 87 -6 87 -5 27 14 28 15 1 187 2 187 -2 150 -1 150 -6 275 -5 275 -5 17
-5 16 -27 9 -27 9 -72 -5 -71 -6 -8 -8 -8 -7 -5 -43 -6 -42 5 -65 5 -65 -5
-278 -5 -279 -20 -14 -20 -15 -15 3 -15 3 -37 65 -37 65 -24 50 -24 50 -32 39
-31 39 0 13 0 12 -23 29 -24 28 -27 45 -28 45 -54 75 -54 75 -23 46 -23 46
-41 48 -41 47 -93 4z"/>
<path d="M35427 19123 l-408 3 -14 -19 -14 -20 -1 -606 0 -606 16 -23 16 -23
405 2 406 1 24 24 23 23 0 64 0 64 -20 18 -20 18 -265 2 -265 2 -25 17 -26 17
-9 25 -10 25 0 110 0 111 29 29 29 29 24 1 23 1 210 2 210 1 18 35 18 35 -4
44 -5 43 -15 16 -16 15 -214 3 -215 2 -31 16 -31 16 -15 30 -15 29 0 71 0 71
15 29 15 28 32 11 33 11 247 -3 248 -4 14 16 14 16 2 15 2 15 -1 56 -1 55 -12
17 -13 16 -408 4z"/>
</g>
</svg>
