<?xml version="1.0" standalone="no"?>
<!DOCTYPE svg PUBLIC "-//W3C//DTD SVG 20010904//EN"
 "http://www.w3.org/TR/2001/REC-SVG-20010904/DTD/svg10.dtd">
<svg version="1.0" xmlns="http://www.w3.org/2000/svg"
 width="512.000000pt" height="512.000000pt" viewBox="0 0 512.000000 512.000000"
 preserveAspectRatio="xMidYMid meet">
<metadata>
Created by potrace 1.16, written by Peter Selinger 2001-2019
</metadata>
<g transform="translate(0.000000,512.000000) scale(0.100000,-0.100000)"
fill="#000000" stroke="none">
<path d="M643 3404 l-23 -23 0 -528 c-1 -290 -2 -614 -3 -720 -2 -190 -2 -192
22 -217 49 -52 71 -43 326 137 127 89 244 172 260 184 32 24 390 280 466 335
84 59 102 123 52 177 -51 54 -849 575 -865 565 -6 -4 -8 -3 -5 3 8 13 -40 46
-53 38 -6 -4 -7 -11 -4 -17 4 -6 -2 -6 -15 1 -24 13 -29 23 -7 15 17 -7 31 12
15 21 -6 4 -18 1 -26 -8 -14 -13 -13 -17 10 -32 15 -9 31 -14 37 -10 6 4 9 2
8 -4 -2 -6 35 -37 81 -71 89 -64 96 -81 11 -29 -31 19 -58 29 -71 26 -17 -5
-18 -3 -7 11 11 13 11 15 -4 9 -11 -4 -17 -2 -15 5 1 6 -4 13 -12 16 -8 2 -11
0 -7 -6 3 -6 2 -13 -3 -17 -6 -3 -8 3 -6 15 4 22 -23 41 -67 46 -21 3 -28 -1
-31 -19 -3 -18 -5 -16 -13 13 l-9 35 -5 -40 -6 -40 -5 43 c-6 51 20 105 46 96
20 -8 9 -24 -13 -18 -9 3 -1 -4 18 -14 25 -14 40 -17 52 -11 23 12 23 16 -4
30 -20 11 -22 11 -10 -3 10 -13 10 -18 1 -24 -8 -5 -9 -3 -4 6 6 10 4 12 -7 7
-12 -4 -14 -1 -11 14 3 12 0 19 -8 20 -8 0 -25 2 -38 3 -15 2 -34 -6 -48 -20z
m130 -104 c10 -10 9 -12 -6 -6 -10 3 -25 6 -33 6 -8 0 -14 4 -14 8 0 13 39 7
53 -8z m231 -240 c8 0 25 -12 40 -26 19 -20 26 -37 26 -65 0 -51 -8 -67 -41
-85 -28 -14 -29 -18 -29 -83 0 -100 -23 -137 -145 -230 -150 -115 -148 -108
-146 -403 2 -226 1 -239 -16 -236 -17 3 -18 21 -18 254 l1 250 27 46 c18 31
58 70 123 119 112 86 134 119 134 209 0 46 -3 60 -14 60 -8 0 -27 10 -41 23
-34 30 -43 85 -19 122 19 30 71 57 92 50 8 -3 19 -5 26 -5z m381 -194 c65 -28
79 -111 26 -158 -33 -30 -63 -35 -106 -18 -36 14 -58 -13 -86 -105 -25 -82
-55 -127 -109 -157 -21 -13 -44 -33 -49 -46 -6 -12 -26 -30 -45 -39 -30 -14
-42 -15 -76 -4 -106 31 -81 181 30 181 40 0 90 -31 90 -56 0 -24 19 -16 63 29
33 33 46 55 55 98 7 31 26 78 43 104 18 28 29 58 28 74 -4 41 10 71 44 92 38
23 47 23 92 5z m15 -440 c0 -2 -39 -33 -87 -68 -305 -224 -477 -343 -398 -273
53 46 164 127 324 237 161 111 161 111 161 104z m-525 -376 c-3 -5 -16 -15
-28 -21 -19 -9 -19 -8 3 10 28 23 34 26 25 11z"/>
<path d="M3020 3019 c-89 -40 -124 -97 -124 -204 1 -100 42 -167 124 -202 51
-21 194 -14 241 13 l34 20 3 102 3 102 -96 0 -95 0 0 -40 0 -40 46 0 45 0 -3
-42 -3 -43 -51 -3 c-27 -2 -62 2 -77 7 -40 15 -67 67 -67 126 0 116 95 176
195 125 22 -11 40 -20 41 -20 1 0 11 16 23 35 l20 35 -23 15 c-60 40 -166 46
-236 14z"/>
<path d="M3481 3014 c-87 -44 -131 -141 -111 -244 5 -25 9 -48 10 -52 1 -17
67 -81 102 -99 58 -30 174 -28 236 3 l46 23 0 100 0 100 -92 3 -92 3 0 -41 0
-40 46 0 45 0 -3 -42 -3 -43 -52 -3 c-92 -5 -143 43 -143 133 0 114 99 177
200 125 l38 -20 21 36 c12 19 21 37 21 38 0 2 -22 13 -49 25 -71 30 -152 28
-220 -5z"/>
<path d="M1850 2990 l0 -39 68 -3 67 -3 5 -171 5 -171 45 1 45 1 3 173 2 172
65 0 65 0 0 40 0 40 -185 0 -185 0 0 -40z"/>
<path d="M2272 2818 l3 -212 48 -3 47 -4 0 75 c0 41 4 77 8 80 5 3 22 2 37 -3
22 -5 40 -25 71 -77 l43 -69 55 -2 c31 0 56 1 56 3 0 2 -22 38 -49 81 l-50 77
40 37 c36 33 39 40 39 91 0 42 -5 62 -22 83 -35 45 -74 55 -208 55 l-120 0 2
-212z m230 115 c10 -9 18 -29 18 -44 0 -40 -35 -61 -97 -57 l-48 3 -3 58 -3
57 57 0 c39 0 63 -5 76 -17z"/>
<path d="M2716 2877 c1 -83 2 -180 3 -214 l1 -63 45 0 45 0 0 215 0 215 -47 0
-48 0 1 -153z"/>
<path d="M3852 2818 l3 -213 153 -3 152 -3 0 46 0 45 -105 0 -105 0 0 45 0 45
95 0 95 0 0 40 0 39 -92 3 -93 3 -3 43 -3 42 105 0 106 0 0 40 0 40 -155 0
-155 0 2 -212z"/>
<path d="M4250 2815 l0 -215 50 0 50 0 0 81 0 81 33 -7 c17 -4 37 -13 42 -21
6 -9 26 -41 46 -73 l37 -58 57 -2 57 -1 -23 38 c-12 20 -35 56 -51 79 -34 51
-35 57 -3 71 37 17 58 67 53 124 -9 94 -56 118 -228 118 l-120 0 0 -215z m232
118 c18 -16 23 -49 10 -69 -14 -21 -51 -34 -96 -34 l-46 0 0 60 0 60 57 0 c38
0 62 -5 75 -17z"/>
<path d="M1911 2369 l-1 -87 48 5 c56 6 92 38 92 84 0 46 -33 72 -86 67 -24
-2 -46 1 -48 7 -3 5 -5 -29 -5 -76z m106 14 c4 -47 -14 -73 -53 -73 -23 0 -24
3 -24 59 l0 59 37 -2 c35 -2 36 -3 40 -43z"/>
<path d="M2120 2374 c-16 -40 -30 -77 -30 -83 0 -18 19 -12 30 9 15 28 76 28
85 -1 7 -20 27 -23 26 -4 -2 32 -55 152 -66 152 -8 0 -28 -32 -45 -73z m60 2
c6 -19 16 -37 23 -40 7 -2 -4 -2 -23 1 -44 7 -43 6 -35 42 9 40 21 39 35 -3z"/>
<path d="M2260 2433 c0 -7 11 -13 25 -13 24 0 25 -2 25 -70 0 -56 3 -70 15
-70 12 0 15 14 15 70 0 70 4 77 43 71 4 0 7 3 7 8 0 5 -29 11 -65 13 -47 2
-65 0 -65 -9z"/>
<path d="M2434 2366 c-26 -72 -28 -84 -13 -76 9 6 19 15 21 22 2 6 21 11 41
10 26 -1 36 2 31 10 -4 6 -3 8 4 5 5 -4 8 -16 5 -26 -5 -20 12 -38 21 -22 9
14 -50 156 -66 159 -9 2 -24 -26 -44 -82z m60 22 c10 -39 7 -48 -19 -48 -29 0
-28 -2 -14 39 13 37 24 40 33 9z"/>
<path d="M2680 2364 c0 -64 3 -85 13 -82 17 6 22 125 5 146 -11 13 -11 14 1 7
10 -5 12 -4 7 3 -18 29 -26 6 -26 -74z"/>
<path d="M2780 2365 c0 -50 4 -85 10 -85 6 0 10 25 10 55 0 53 11 72 24 39 3
-8 11 -12 17 -8 8 4 9 3 5 -4 -8 -14 34 -82 52 -82 9 0 12 24 12 85 0 50 -4
85 -10 85 -5 0 -10 -25 -10 -55 0 -30 -4 -55 -9 -55 -5 0 -21 20 -35 45 -15
24 -32 43 -39 41 -6 -1 -9 -1 -4 1 13 8 8 23 -8 23 -12 0 -15 -16 -15 -85z"/>
<path d="M3151 2370 l-1 -86 52 1 c31 0 53 5 56 13 2 8 -11 12 -42 12 -42 0
-46 2 -46 25 0 23 4 25 40 25 50 0 53 18 3 22 -31 3 -38 8 -49 38 -12 33 -13
31 -13 -50z"/>
<path d="M3175 2441 c-12 -12 -2 -17 35 -19 22 -2 40 1 40 7 0 9 -67 21 -75
12z"/>
<path d="M3320 2367 l0 -83 50 -1 c36 0 50 4 50 13 0 10 -13 14 -40 14 l-40 0
0 70 c0 40 -4 70 -10 70 -6 0 -10 -34 -10 -83z"/>
<path d="M3479 2448 c0 -2 -2 -37 -4 -79 -4 -77 -4 -77 23 -82 33 -6 82 2 82
14 0 5 -18 9 -40 9 l-40 0 0 70 c0 40 -4 70 -10 70 -5 0 -10 -1 -11 -2z"/>
<path d="M3642 2441 c-17 -11 -13 -153 6 -159 9 -3 12 18 12 82 0 47 -1 86 -2
86 -2 0 -9 -4 -16 -9z"/>
<path d="M3763 2439 c-29 -15 -46 -60 -38 -99 9 -39 54 -64 100 -56 30 6 33
10 37 46 3 39 3 40 -30 40 -20 0 -31 -4 -27 -10 3 -5 13 -10 21 -10 22 0 17
-37 -7 -43 -21 -6 -69 30 -69 52 0 48 43 81 79 62 19 -10 41 2 28 15 -11 11
-74 13 -94 3z"/>
<path d="M3930 2362 l0 -83 52 3 c63 4 80 28 20 28 -31 0 -41 4 -45 19 -6 26
0 31 40 31 18 0 33 5 33 10 0 6 -15 10 -34 10 -25 0 -35 5 -39 20 -4 17 0 20
34 20 25 0 39 5 39 13 0 8 -17 12 -50 12 l-50 0 0 -83z"/>
<path d="M4100 2365 c0 -50 4 -85 10 -85 6 0 10 25 10 55 0 30 3 55 8 55 4 0
22 -24 41 -53 49 -76 61 -71 61 25 0 56 -4 78 -12 78 -9 0 -12 -16 -11 -50 1
-27 -2 -50 -7 -50 -4 0 -20 20 -34 45 -15 24 -35 49 -46 55 -19 10 -20 7 -20
-75z"/>
<path d="M4328 2435 c-57 -31 -44 -130 20 -149 35 -10 88 6 77 24 -4 7 -12 7
-25 0 -46 -24 -91 29 -71 83 11 29 34 39 67 31 26 -7 34 10 8 20 -24 9 -47 7
-76 -9z"/>
<path d="M4480 2364 l0 -83 55 2 c66 2 80 27 15 27 -36 0 -40 3 -40 25 0 22 4
25 35 25 19 0 35 5 35 10 0 6 -16 10 -36 10 -31 0 -35 3 -32 22 3 20 8 23 41
20 26 -3 37 0 37 10 0 9 -16 13 -55 14 l-55 0 0 -82z"/>
<path d="M2960 2430 c0 -5 14 -10 31 -10 l30 0 -3 -67 c-2 -46 1 -67 10 -70 9
-4 12 14 12 66 0 69 1 71 25 71 14 0 25 5 25 10 0 6 -28 10 -65 10 -37 0 -65
-4 -65 -10z"/>
</g>
</svg>
