<?xml version="1.0" standalone="no"?>
<!DOCTYPE svg PUBLIC "-//W3C//DTD SVG 20010904//EN"
 "http://www.w3.org/TR/2001/REC-SVG-20010904/DTD/svg10.dtd">
<svg version="1.0" xmlns="http://www.w3.org/2000/svg"
 width="392.000000pt" height="53.000000pt" viewBox="0 0 392.000000 53.000000"
 preserveAspectRatio="xMidYMid meet">

<g transform="translate(0.000000,53.000000) scale(0.100000,-0.100000)"
fill="#000000" stroke="none">
<path d="M2511 512 c-19 -9 -38 -27 -42 -39 -8 -23 -7 -23 74 -23 l81 0 -58
-59 -58 -58 44 -21 c24 -12 63 -41 86 -65 l43 -44 -40 -36 c-94 -85 -179 -98
-233 -37 -16 16 -28 39 -28 50 0 25 -21 34 -55 26 -31 -8 -32 -34 -4 -94 32
-65 86 -97 163 -97 71 1 125 25 191 86 23 21 46 39 51 39 5 0 36 -23 69 -52
73 -62 109 -78 175 -78 152 0 239 150 169 292 -23 45 -63 74 -120 87 -80 18
-156 -11 -248 -94 l-37 -34 -50 44 -49 43 83 84 c45 46 82 87 82 91 0 4 -57 7
-127 7 -102 0 -135 -4 -162 -18z m519 -209 c54 -37 71 -92 45 -147 -45 -94
-136 -96 -239 -4 l-59 52 44 39 c84 75 157 96 209 60z"/>
<path d="M87 514 c-8 -8 19 -73 40 -96 15 -16 17 -15 44 22 16 22 35 40 42 41
6 0 -6 9 -28 20 -40 18 -86 25 -98 13z"/>
<path d="M303 501 c-112 -51 -199 -212 -164 -303 15 -38 23 -35 45 17 13 32
43 68 103 123 80 72 123 131 123 167 0 21 -55 19 -107 -4z"/>
<path d="M23 471 c-37 -59 -18 -169 41 -236 l35 -40 1 50 c0 28 4 66 10 85 8
30 6 39 -15 73 -14 21 -30 49 -35 62 -11 30 -21 31 -37 6z"/>
<path d="M420 434 c-22 -37 -59 -78 -100 -110 -97 -78 -149 -183 -100 -199 74
-23 203 64 251 169 25 55 25 146 1 176 l-18 22 -34 -58z"/>
<path d="M1610 459 c-55 -22 -82 -99 -61 -176 15 -55 43 -78 96 -78 46 0 95
21 95 41 0 22 -16 24 -51 7 -28 -14 -36 -14 -58 -2 -30 17 -43 60 -35 112 11
70 62 90 92 37 23 -40 52 -40 52 0 0 23 -7 35 -32 50 -36 22 -60 24 -98 9z"/>
<path d="M1823 460 c-48 -20 -74 -104 -53 -178 19 -74 84 -97 166 -60 29 14
28 45 -1 40 -84 -15 -93 -14 -105 9 -14 26 -17 81 -7 121 12 47 81 49 93 2 6
-25 43 -35 45 -11 6 65 -66 106 -138 77z"/>
<path d="M1257 443 c-4 -3 -7 -17 -7 -30 0 -14 -6 -23 -15 -23 -8 0 -15 -7
-15 -15 0 -8 7 -15 15 -15 12 0 15 -13 15 -59 0 -33 3 -66 6 -75 8 -22 84 -23
84 -1 0 8 -9 15 -20 15 -18 0 -20 7 -20 60 0 53 2 60 20 60 11 0 20 7 20 15 0
8 -9 15 -20 15 -16 0 -20 7 -20 30 0 22 -5 30 -18 30 -10 0 -22 -3 -25 -7z"/>
<path d="M580 305 c0 -95 0 -95 25 -95 24 0 25 2 25 65 0 53 3 66 19 74 27 15
31 5 31 -71 0 -66 1 -68 25 -68 24 0 25 2 25 65 0 52 3 66 18 74 30 16 42 -6
42 -76 0 -61 1 -63 26 -63 20 0 25 4 20 16 -3 9 -6 47 -6 85 0 64 -2 70 -24
80 -19 9 -31 8 -54 -4 -27 -13 -32 -13 -45 1 -13 12 -21 12 -48 3 -22 -8 -36
-8 -43 -1 -5 5 -16 10 -23 10 -10 0 -13 -24 -13 -95z"/>
<path d="M885 377 c-22 -18 -27 -31 -27 -69 0 -83 41 -120 109 -97 41 13 53
34 53 94 0 84 -75 124 -135 72z m85 -43 c14 -35 -1 -88 -25 -93 -21 -4 -45 23
-45 50 0 63 51 94 70 43z"/>
<path d="M1050 305 c0 -88 1 -95 20 -95 18 0 20 7 20 65 0 55 3 66 21 76 30
16 38 3 41 -71 3 -61 5 -65 28 -68 l25 -3 -3 80 c-3 64 -7 83 -23 97 -17 15
-25 16 -51 6 -20 -7 -37 -8 -49 -2 -10 6 -20 10 -23 10 -3 0 -6 -43 -6 -95z"/>
<path d="M1402 393 c-19 -7 -42 -58 -42 -92 0 -47 17 -80 47 -92 36 -13 97 1
101 24 3 16 -1 17 -32 11 -38 -7 -66 7 -66 32 0 10 15 14 56 14 l57 0 -6 38
c-10 57 -62 87 -115 65z m52 -29 c9 -3 16 -15 16 -25 0 -14 -7 -19 -30 -19
-31 0 -39 17 -18 38 14 14 12 14 32 6z"/>
<path d="M2005 375 c-20 -19 -25 -34 -25 -72 0 -81 44 -116 117 -92 46 15 37
34 -18 34 -38 0 -44 3 -47 23 -3 20 0 22 47 22 27 0 53 5 56 10 10 16 -15 79
-35 90 -32 17 -70 11 -95 -15z m73 -17 c21 -21 13 -38 -18 -38 -18 0 -30 5
-30 13 0 13 19 37 30 37 3 0 11 -5 18 -12z"/>
<path d="M2158 393 c-3 -4 -2 -47 0 -95 4 -85 5 -88 28 -88 22 0 23 4 26 68 3
65 4 67 31 70 21 3 27 8 27 28 0 22 -3 24 -22 19 -13 -4 -27 -11 -32 -15 -5
-5 -19 -2 -31 6 -13 8 -25 11 -27 7z"/>
<path d="M3260 391 c-44 -12 -31 -36 20 -36 34 0 45 -4 48 -17 3 -14 -4 -18
-30 -18 -55 -1 -86 -38 -68 -84 11 -31 44 -41 81 -26 21 9 33 9 42 1 25 -20
33 6 26 85 -8 100 -32 119 -119 95z m68 -123 c-3 -25 -34 -36 -50 -20 -17 17
-1 42 27 42 22 0 26 -4 23 -22z"/>
<path d="M3410 305 c0 -95 0 -95 25 -95 24 0 25 2 25 65 0 51 4 66 18 73 33
18 42 3 42 -68 0 -71 6 -85 34 -74 12 5 16 21 16 69 0 105 -24 138 -85 115
-20 -7 -31 -8 -39 0 -28 28 -36 10 -36 -85z"/>
<path d="M3619 381 c-21 -16 -24 -28 -24 -81 0 -53 3 -65 24 -81 32 -26 74
-24 107 5 24 20 28 31 28 76 0 45 -4 56 -28 76 -33 29 -75 31 -107 5z m85 -53
c15 -41 -3 -83 -34 -83 -22 0 -25 5 -28 44 -2 24 -1 50 2 58 10 24 50 11 60
-19z"/>
<path d="M3793 385 c-26 -18 -30 -57 -9 -78 8 -8 28 -20 45 -27 54 -22 34 -55
-23 -39 -21 6 -32 5 -37 -3 -11 -18 -2 -27 37 -34 99 -18 143 73 53 112 -56
25 -51 66 6 44 20 -8 27 -7 32 6 8 20 1 25 -44 31 -26 3 -45 -1 -60 -12z"/>
<path d="M1276 108 c-9 -12 -12 -24 -7 -28 5 -3 11 -19 14 -35 l4 -30 2 33 c0
18 6 32 14 32 8 0 8 3 -2 9 -8 5 -11 16 -8 25 9 23 1 20 -17 -6z"/>
<path d="M1723 75 c0 -33 2 -45 4 -27 3 18 10 32 18 32 8 0 15 -14 18 -32 4
-32 4 -32 5 5 2 30 -1 37 -17 37 -12 0 -21 8 -24 23 -2 12 -4 -5 -4 -38z"/>
<path d="M863 104 c-6 -16 13 -38 40 -47 19 -6 -5 -29 -26 -23 -14 3 -17 2 -9
-6 13 -13 52 -1 52 17 0 7 -12 22 -27 33 l-28 21 25 10 c25 10 25 10 2 10 -12
1 -25 -6 -29 -15z"/>
<path d="M1975 110 c-3 -6 1 -7 9 -4 18 7 21 14 7 14 -6 0 -13 -4 -16 -10z"/>
<path d="M1909 98 c-2 -27 3 -63 11 -71 4 -5 5 4 2 18 -2 15 0 30 6 34 6 4 5
11 -4 19 -11 10 -14 10 -15 0z"/>
<path d="M944 76 c-10 -25 0 -51 21 -54 20 -4 20 -4 0 12 -20 15 -20 15 3 16
15 0 22 6 22 20 0 24 -37 28 -46 6z m36 -6 c0 -5 -7 -10 -15 -10 -8 0 -15 5
-15 10 0 6 7 10 15 10 8 0 15 -4 15 -10z"/>
<path d="M1020 61 c0 -17 4 -32 8 -35 4 -2 6 11 4 30 -5 42 -12 45 -12 5z"/>
<path d="M1058 60 c-3 -17 -1 -30 4 -30 4 0 8 14 8 30 0 39 -6 39 -12 0z"/>
<path d="M1126 74 c-11 -30 23 -69 39 -44 3 6 -1 7 -9 4 -12 -5 -16 1 -16 21
0 22 3 25 21 20 15 -5 19 -4 15 4 -11 16 -43 13 -50 -5z"/>
<path d="M1213 83 c10 -3 17 -14 17 -28 0 -13 5 -27 10 -30 11 -7 13 24 4 49
-3 9 -16 15 -28 15 -16 -1 -17 -2 -3 -6z"/>
<path d="M1327 83 c-4 -3 -7 -17 -7 -30 0 -27 26 -41 43 -24 9 9 8 11 -4 6
-10 -4 -20 -2 -24 4 -3 7 2 11 14 11 22 0 29 24 11 35 -6 3 -7 -1 -4 -9 4 -11
0 -16 -11 -16 -11 0 -15 5 -11 15 6 16 3 19 -7 8z"/>
<path d="M1465 80 c-3 -5 3 -15 15 -22 25 -16 25 -25 3 -31 -16 -4 -16 -5 -1
-6 24 -2 34 20 15 34 -22 16 -21 22 1 28 13 4 12 5 -5 6 -12 0 -25 -3 -28 -9z"/>
<path d="M1533 60 c2 -31 5 -35 30 -35 24 -1 27 3 27 32 0 40 -17 44 -22 6 -4
-37 -21 -36 -30 2 -6 29 -6 29 -5 -5z"/>
<path d="M1627 83 c17 -3 22 -10 19 -26 -1 -11 -9 -23 -16 -25 -9 -3 -11 1 -7
12 4 9 2 16 -3 16 -13 0 -13 -27 -1 -34 19 -12 41 7 41 35 0 25 -4 29 -27 28
-24 -2 -25 -2 -6 -6z"/>
<path d="M1798 55 c5 -45 12 -45 12 0 0 19 -4 35 -8 35 -4 0 -6 -16 -4 -35z"/>
<path d="M1840 75 c0 -9 7 -18 15 -21 20 -8 19 -21 -2 -27 -17 -4 -17 -5 0 -6
26 -2 34 29 11 42 -17 10 -17 11 1 18 19 7 18 8 -2 8 -14 1 -23 -5 -23 -14z"/>
<path d="M1957 84 c-12 -12 -8 -41 8 -54 20 -17 47 5 43 34 -3 21 -37 34 -51
20z m40 -20 c8 -22 -15 -44 -26 -25 -10 16 -4 41 10 41 5 0 12 -7 16 -16z"/>
<path d="M2037 60 c8 -35 13 -38 13 -8 0 15 6 28 13 31 6 3 2 4 -10 4 -19 -1
-21 -5 -16 -27z"/>
<path d="M2093 55 c0 -22 2 -30 4 -17 2 12 2 30 0 40 -3 9 -5 -1 -4 -23z"/>
<path d="M2147 83 c17 -3 22 -10 19 -26 -1 -11 -9 -23 -16 -25 -9 -3 -11 1 -7
12 4 9 2 16 -3 16 -13 0 -13 -27 -1 -34 19 -12 41 7 41 35 0 25 -4 29 -27 28
-24 -2 -25 -2 -6 -6z"/>
<path d="M1196 51 c-5 -7 -3 -18 3 -24 14 -14 20 -6 11 17 -5 15 -9 16 -14 7z"/>
<path d="M1397 21 c-4 -17 -3 -21 5 -13 5 5 8 16 6 23 -3 8 -7 3 -11 -10z"/>
<path d="M2195 30 c3 -5 8 -10 11 -10 2 0 4 5 4 10 0 6 -5 10 -11 10 -5 0 -7
-4 -4 -10z"/>
</g>
</svg>
