<?xml version="1.0" encoding="UTF-8"?>
<!DOCTYPE svg PUBLIC "-//W3C//DTD SVG 1.1//EN" "http://www.w3.org/Graphics/SVG/1.1/DTD/svg11.dtd">
<!-- Creator: CorelDRAW X6 -->
<svg xmlns="http://www.w3.org/2000/svg" xml:space="preserve" width="50.0762mm" height="70.0762mm" version="1.1" style="shape-rendering:geometricPrecision; text-rendering:geometricPrecision; image-rendering:optimizeQuality; fill-rule:evenodd; clip-rule:evenodd"
viewBox="0 0 977 1368"
 xmlns:xlink="http://www.w3.org/1999/xlink">
 <defs>
  <style type="text/css">
   <![CDATA[
    .str0 {stroke:#A9ABAE;stroke-width:1.48726}
    .fil2 {fill:#3E4095}
    .fil4 {fill:#ED3237}
    .fil0 {fill:#FEFEFE}
    .fil1 {fill:#FFF212}
    .fil3 {fill:#ED3237;fill-rule:nonzero}
    .fil5 {fill:#ED3237;fill-rule:nonzero}
   ]]>
  </style>
 </defs>
 <g id="Camada_x0020_1">
  <metadata id="CorelCorpID_0Corel-Layer"/>
  <g id="_1040514096">
   <path class="fil0 str0" d="M119 1l739 0c65,0 119,53 119,117l0 1132c0,64 -53,117 -119,117l-739 0c-65,0 -119,-53 -119,-117l0 -1132c0,-64 53,-117 119,-117z"/>
   <path class="fil1" d="M40 1211l897 0 0 33c1,41 -22,82 -74,84l-750 0c-43,-1 -80,-43 -73,-85l0 -32z"/>
   <path class="fil1" d="M40 123l0 774 208 -2 -93 -238c-32,-81 -52,-150 -1,-257l-8 -2c-7,3 3,-4 0,-13l-13 -3c-3,-7 -5,-13 1,-15l-11 -10 -20 -49c-5,-14 -4,-23 11,-29l84 -32c15,-6 29,1 34,15l21 58 -12 7c6,-3 14,-2 16,6l3 9c3,9 -6,6 -13,8l8 18c109,30 140,100 161,172 4,13 60,-193 65,-180 30,-102 99,-164 217,-178l9 -17c1,-2 -8,-2 -10,-6 -2,-5 2,-13 3,-15 2,-4 15,1 15,-2 0,-4 -7,-7 -7,-11 2,-26 8,-53 28,-58 14,-3 62,12 83,27 5,4 10,8 16,14 4,4 -22,49 -17,53 3,3 -20,2 -17,5 2,2 5,5 7,7 3,3 -7,14 -4,17 2,2 -14,-2 -11,0 4,4 -7,15 -2,19 18,15 96,88 73,243l-41 117 21 7c8,3 12,10 10,18l-4 13c-1,4 -3,6 -6,8 13,20 17,42 11,66l-63 208 146 0 0 -769c0,-49 -42,-87 -84,-88l-734 0c-47,0 -80,40 -79,84z"/>
   <polygon class="fil2" points="40,1198 938,1198 938,1211 40,1211 "/>
   <path class="fil3" d="M110 1041l-23 0 -25 -44 0 44 -20 0 0 -93 29 0c11,0 20,2 25,7 6,4 8,11 8,20 0,6 -2,12 -6,16 -4,5 -9,7 -15,8l26 42zm-48 -54l3 0c8,0 13,-1 16,-3 3,-2 4,-5 4,-9 0,-5 -1,-8 -4,-10 -3,-2 -8,-3 -16,-3l-3 0 0 25zm50 54l0 -93 55 0 0 17 -35 0 0 19 35 0 0 17 -35 0 0 23 35 0 0 17 -55 0zm65 0l0 -93 55 0 0 17 -35 0 0 19 35 0 0 17 -35 0 0 40 -20 0zm128 0l-23 0 -25 -44 0 44 -20 0 0 -93 29 0c11,0 20,2 25,7 6,4 8,11 8,20 0,6 -2,12 -6,16 -4,5 -9,7 -15,8l26 42zm-48 -54l3 0c8,0 13,-1 16,-3 3,-2 4,-5 4,-9 0,-5 -1,-8 -4,-10 -3,-2 -8,-3 -16,-3l-3 0 0 25zm50 54l0 -93 20 0 0 93 -20 0zm76 -49l43 0c0,1 0,1 0,2 0,1 0,2 0,3 0,14 -4,25 -12,34 -8,9 -18,13 -31,13 -14,0 -26,-5 -36,-14 -9,-9 -14,-21 -14,-35 0,-14 5,-26 14,-35 9,-9 21,-14 36,-14 8,0 15,2 21,5 6,3 12,8 17,14l-13 10c-3,-4 -7,-7 -11,-9 -4,-2 -8,-3 -13,-3 -9,0 -17,3 -22,9 -6,6 -8,13 -8,23 0,9 3,17 8,23 6,6 13,9 22,9 7,0 12,-2 16,-5 4,-3 6,-7 6,-12l0 -1 -22 0 0 -16zm49 49l0 -93 55 0 0 17 -35 0 0 19 35 0 0 17 -35 0 0 23 35 0 0 17 -55 0zm132 0l-23 0 -25 -44 0 44 -20 0 0 -93 29 0c11,0 20,2 25,7 6,4 8,11 8,20 0,6 -2,12 -6,16 -4,5 -9,7 -15,8l26 42zm-48 -54l3 0c8,0 13,-1 16,-3 3,-2 4,-5 4,-9 0,-5 -1,-8 -4,-10 -3,-2 -8,-3 -16,-3l-3 0 0 25zm98 18l-10 -30c0,-1 -1,-2 -1,-5 0,-2 -1,-5 -1,-8 -1,3 -1,6 -2,8 -1,2 -1,4 -1,5l-10 30 26 0zm-59 35l35 -93 23 0 36 93 -23 0 -8 -20 -36 0 -7 20 -21 0zm95 0l0 -93 21 0 41 54c1,2 2,4 4,6 1,3 3,6 4,10 0,-3 -1,-6 -1,-8 0,-3 0,-6 0,-10l0 -52 19 0 0 93 -20 0 -42 -55c-1,-2 -2,-4 -4,-6 -1,-3 -3,-6 -4,-10 0,3 1,5 1,8 0,3 0,6 0,10l0 53 -19 0zm136 -76l0 76 -20 0 0 -76 -23 0 0 -17 63 0 0 17 -21 0zm26 76l0 -93 55 0 0 17 -35 0 0 19 35 0 0 17 -35 0 0 23 35 0 0 17 -55 0zm59 -12l11 -13c1,3 4,6 7,8 3,2 7,3 10,3 5,0 8,-1 11,-3 3,-2 4,-5 4,-9 0,-4 -5,-9 -14,-13 -3,-1 -5,-3 -7,-3 -8,-4 -14,-8 -17,-12 -3,-4 -5,-9 -5,-15 0,-8 3,-14 9,-19 6,-5 14,-7 24,-7 6,0 11,1 15,3 4,2 8,5 11,9l-12 11c-1,-3 -3,-5 -6,-6 -2,-1 -5,-2 -8,-2 -4,0 -7,1 -10,3 -2,2 -4,5 -4,8 0,5 5,9 14,14 2,1 3,1 4,2 8,4 14,8 18,12 4,5 6,10 6,16 0,9 -3,16 -9,21 -6,5 -14,8 -24,8 -7,0 -13,-1 -18,-4 -5,-2 -9,-6 -11,-11z"/>
   <path class="fil2" d="M427 525l45 -124c1,-2 2,-5 3,-8l325 112 4 -11 -325 -112 10 -36c23,-86 129,-164 215,-157l10 -26 -8 -3c-2,-1 -3,-2 -2,-4l2 -5c1,-2 3,-3 5,-2l8 3 5 -15 -11 -7 16 -44c2,-6 10,-9 15,-7l75 29c6,2 10,9 7,15l-17 44 -12 -2 -6 14 8 3c2,1 3,3 2,5l-2 5c-1,2 -3,2 -5,2l-8 -3 -9 26c78,58 100,189 72,259l-32 98 -150 -47c-8,-2 -16,1 -19,9l-4 13c-1,4 -1,7 1,10 -22,10 -38,27 -45,49 -19,64 -43,123 -56,168l-4 -9c-14,-21 -27,-30 -42,-39l-68 -184c-3,-9 -2,-9 -5,-18zm-9 -20l60 -163c33,-97 124,-161 218,-165l3 -9c-7,-2 -10,-7 -7,-15l3 -8c3,-7 9,-7 15,-5l-11 -6 19 -52c4,-12 17,-19 31,-13l76 29c14,5 19,18 14,30l-20 52 -12 -2c6,2 10,7 8,14l-3 8c-3,8 -9,9 -15,6l-4 8c79,58 98,200 70,269l-32 96 23 7c8,3 12,10 10,18l-4 13c-1,4 -3,6 -6,8 13,20 17,42 11,66l-62 204 136 -2 0 15 -154 1 63 -210 -220 -67 4 -13 220 67c5,-20 3,-41 -10,-65l2 -5c2,1 5,-1 6,-3l3 -9c1,-3 0,-4 -3,-5l-183 -57c-3,-1 -5,0 -6,2l-3 9c-1,3 1,5 3,6l-1 5c-21,12 -37,27 -44,49 -22,73 -47,135 -62,183 18,52 19,60 37,112l-14 0 -42 -124 -191 73 -5 -12 191 -72c-17,-30 -53,-46 -92,-56l-8 -23 8 -3c2,-1 4,-2 3,-5l-2 -6c-1,-2 -3,-3 -6,-2l-9 3 -6 -16 12 -7 -18 -49c-3,-7 -11,-10 -17,-7l-84 32c-6,2 -11,10 -8,17l19 49 14 -2 6 16 -8 3c-3,1 -4,3 -3,5l2 6c1,2 3,3 5,2l9 -3 10 25c-22,28 -41,60 -34,100l22 62 -15 0 -19 -56c-7,-53 13,-79 32,-107l-4 -10c-7,3 -14,2 -17,-7l-4 -9c-3,-7 2,-13 9,-15l-13 3 -22 -57c-5,-14 1,-28 16,-34l84 -32c15,-6 29,1 34,15l21 58 -12 7c6,-3 14,-2 16,6l3 9c3,9 -1,14 -8,17l4 10c10,3 24,6 35,12l-64 -171c-1,-3 -2,-6 -3,-9l-245 93 -5 -13 245 -93c-34,-81 -79,-129 -166,-156l-8 -23 8 -3c2,-1 4,-2 3,-5l-2 -6c-1,-2 -3,-3 -6,-2l-9 3 -6 -16 12 -7 -18 -49c-3,-7 -11,-10 -17,-7l-84 32c-6,2 -11,10 -8,17l19 49 14 -2 6 16 -8 3c-3,1 -4,3 -3,5l2 6c1,2 3,3 5,2l9 -3 9 23c-46,98 -40,159 -7,245l102 260 -219 0 0 -14 199 0 -94 -240c-32,-81 -46,-142 5,-249l-4 -10c-7,3 -14,2 -17,-7l-4 -9c-3,-7 2,-13 9,-15l-13 3 -22 -57c-5,-14 1,-28 16,-34l84 -32c15,-6 29,1 34,15l21 58 -12 7c6,-3 14,-2 16,6l3 9c3,9 -1,14 -8,17l4 10c81,26 130,76 162,143z"/>
   <g>
    <path class="fil3" d="M61 1145l11 0c10,0 18,-2 23,-7 5,-5 7,-12 7,-22 0,-10 -2,-18 -7,-22 -5,-5 -12,-7 -23,-7l-11 0 0 59zm-20 17l0 -92 25 0c10,0 18,1 23,2 6,1 11,4 15,7 6,4 10,9 13,16 3,6 4,13 4,22 0,8 -1,15 -4,22 -3,6 -7,12 -13,16 -4,3 -9,5 -14,7 -5,1 -13,2 -23,2l-7 0 -20 0zm184 -46c0,7 -1,13 -4,19 -2,6 -6,11 -11,15 -5,5 -10,8 -16,11 -6,2 -12,4 -19,4 -6,0 -11,-1 -17,-3 -5,-2 -10,-5 -15,-8 -6,-5 -10,-10 -13,-17 -3,-6 -5,-13 -5,-21 0,-7 1,-13 4,-19 2,-6 6,-11 11,-16 5,-4 10,-8 16,-10 6,-2 12,-4 19,-4 6,0 13,1 19,4 6,2 11,6 16,10 5,5 8,10 11,16 2,6 4,12 4,19zm-49 31c8,0 15,-3 21,-9 5,-6 8,-13 8,-22 0,-9 -3,-16 -8,-22 -5,-6 -12,-9 -21,-9 -8,0 -15,3 -21,9 -6,6 -8,13 -8,22 0,9 3,16 8,22 5,6 12,9 21,9zm122 -60l0 75 -20 0 0 -75 -23 0 0 -17 65 0 0 17 -23 0zm95 75l-23 0 -24 -43 0 43 -20 0 0 -92 28 0c11,0 20,2 25,7 6,4 8,11 8,20 0,6 -2,12 -6,16 -4,4 -9,7 -15,8l25 42zm-47 -53l3 0c8,0 13,-1 16,-3 3,-2 4,-5 4,-9 0,-5 -1,-8 -4,-10 -3,-2 -8,-3 -16,-3l-3 0 0 24zm49 53l0 -92 20 0 0 92 -20 0zm88 -35l-10 -30c0,-1 -1,-2 -1,-5 0,-2 -1,-5 -1,-8 -1,3 -1,6 -2,8 -1,2 -1,4 -1,5l-10 29 26 0zm-59 35l35 -92 23 0 36 92 -22 0 -8 -20 -36 0 -6 20 -21 0zm93 0l0 -92 20 0 41 54c1,2 2,4 4,6 1,3 3,6 4,10 0,-3 -1,-5 -1,-8 0,-3 0,-6 0,-10l0 -52 19 0 0 92 -19 0 -42 -55c-1,-2 -2,-4 -4,-6 -1,-3 -3,-6 -4,-10 0,3 1,5 1,8 0,3 0,6 0,10l0 53 -19 0zm141 -49l42 0c0,1 0,1 0,2 0,1 0,2 0,3 0,14 -4,25 -12,34 -8,9 -18,13 -31,13 -14,0 -26,-5 -35,-14 -9,-9 -14,-21 -14,-35 0,-14 5,-25 14,-35 9,-9 21,-14 35,-14 8,0 14,2 21,5 6,3 12,8 17,14l-13 10c-3,-4 -7,-7 -10,-9 -4,-2 -8,-3 -13,-3 -9,0 -16,3 -22,8 -5,6 -8,13 -8,23 0,9 3,17 8,23 5,6 13,9 21,9 6,0 12,-2 16,-5 4,-3 6,-7 6,-12l0 -1 -22 0 0 -16zm125 -44l0 57c0,12 -3,22 -10,28 -7,6 -17,9 -30,9 -13,0 -23,-3 -30,-9 -7,-6 -10,-16 -10,-28l0 -57 20 0 0 54c0,8 2,13 5,17 3,4 8,6 15,6 7,0 12,-2 15,-6 3,-4 5,-10 5,-17l0 -54 20 0zm8 92l0 -92 20 0 0 75 31 0 0 17 -51 0zm143 -46c0,7 -1,13 -4,19 -2,6 -6,11 -11,15 -5,5 -10,8 -16,11 -6,2 -12,4 -19,4 -6,0 -11,-1 -17,-3 -5,-2 -10,-5 -15,-8 -6,-5 -10,-10 -13,-17 -3,-6 -5,-13 -5,-21 0,-7 1,-13 4,-19 2,-6 6,-11 11,-16 5,-4 10,-8 16,-10 6,-2 12,-4 19,-4 6,0 13,1 19,4 6,2 11,6 16,10 5,5 8,10 11,16 2,6 4,12 4,19zm-49 31c8,0 15,-3 21,-9 5,-6 8,-13 8,-22 0,-9 -3,-16 -8,-22 -5,-6 -12,-9 -21,-9 -8,0 -15,3 -21,9 -6,6 -8,13 -8,22 0,9 3,16 8,22 5,6 12,9 21,9z"/>
    <polygon class="fil4" points="455,1065 486,1065 486,1054 455,1054 "/>
   </g>
   <path class="fil5" d="M303 1279c0,-3 -1,-5 -2,-7 -2,-2 -4,-2 -6,-2 -3,0 -5,1 -6,2 -2,2 -2,4 -2,7 0,3 1,5 2,7 1,2 4,2 6,2 3,0 5,-1 6,-2 2,-2 2,-4 2,-7zm12 -38l0 57 -12 0 0 -6c-2,2 -4,4 -6,6 -2,1 -4,2 -7,2 -5,0 -9,-2 -12,-5 -3,-4 -5,-8 -5,-14 0,-6 2,-11 5,-14 3,-4 7,-5 12,-5 3,0 6,1 8,2 2,1 4,3 5,6 0,-1 0,-2 0,-3 0,-1 0,-2 0,-4l0 -19 12 0zm35 33c0,-2 -1,-4 -2,-5 -1,-1 -3,-2 -5,-2 -2,0 -4,1 -5,2 -1,1 -2,3 -3,5l15 0zm13 7l-28 0c0,3 1,5 2,7 1,2 3,2 6,2 2,0 4,0 5,-1 1,-1 2,-2 3,-3l10 4c-1,3 -3,5 -6,7 -3,2 -7,2 -11,2 -6,0 -12,-2 -15,-5 -4,-4 -6,-8 -6,-14 0,-6 2,-11 6,-14 4,-4 9,-6 15,-6 6,0 11,2 14,6 4,4 5,9 5,16l0 1zm4 13l3 -10c2,2 4,3 6,4 2,1 5,1 7,1 2,0 3,0 4,-1 1,-1 1,-1 1,-2 0,-2 -2,-3 -5,-4 -1,0 -2,0 -3,-1 -4,-1 -7,-2 -8,-4 -2,-2 -3,-4 -3,-7 0,-4 1,-6 4,-9 3,-2 6,-3 11,-3 2,0 5,0 7,1 2,1 5,1 7,3l-3 9c-2,-1 -3,-2 -5,-3 -2,-1 -4,-1 -5,-1 -1,0 -3,0 -3,1 -1,0 -1,1 -1,2 0,1 2,2 5,3 1,0 1,0 2,0 4,1 8,3 9,5 2,2 3,4 3,7 0,4 -1,7 -4,9 -3,2 -7,3 -11,3 -3,0 -6,0 -9,-1 -3,-1 -5,-2 -8,-3zm68 -15c0,-3 -1,-5 -2,-7 -2,-2 -4,-2 -6,-2 -3,0 -5,1 -6,2 -2,2 -2,4 -2,7 0,3 1,5 2,7 1,2 4,2 6,2 3,0 5,-1 6,-2 2,-2 2,-4 2,-7zm12 -38l0 57 -12 0 0 -6c-2,2 -4,4 -6,6 -2,1 -4,2 -7,2 -5,0 -9,-2 -12,-5 -3,-4 -5,-8 -5,-14 0,-6 2,-11 5,-14 3,-4 7,-5 12,-5 3,0 6,1 8,2 2,1 4,3 5,6 0,-1 0,-2 0,-3 0,-1 0,-2 0,-4l0 -19 12 0zm35 33c0,-2 -1,-4 -2,-5 -1,-1 -3,-2 -5,-2 -2,0 -4,1 -5,2 -1,1 -2,3 -3,5l15 0zm13 7l-28 0c0,3 1,5 2,7 1,2 3,2 6,2 2,0 4,0 5,-1 1,-1 2,-2 3,-3l10 4c-1,3 -3,5 -6,7 -3,2 -7,2 -11,2 -6,0 -12,-2 -15,-5 -4,-4 -6,-8 -6,-14 0,-6 2,-11 6,-14 4,-4 9,-6 15,-6 6,0 11,2 14,6 4,4 5,9 5,16l0 1zm44 16l0 -41 -11 0 6 -12 18 0 0 53 -13 0zm53 -27c3,0 4,-1 6,-2 1,-1 2,-3 2,-6 0,-3 -1,-5 -2,-6 -1,-1 -3,-2 -6,-2 -2,0 -4,1 -6,2 -1,1 -2,3 -2,6 0,3 1,5 2,6 1,1 3,2 6,2zm1 9c-1,0 -2,0 -3,1 -1,0 -2,0 -3,0 -5,0 -8,-2 -11,-5 -3,-3 -4,-7 -4,-12 0,-6 2,-11 6,-14 4,-4 9,-5 15,-5 6,0 11,2 15,5 4,3 5,8 5,14 0,3 -1,7 -2,10 -1,4 -4,8 -7,13l-7 11 -15 0 12 -19zm46 -7c-2,0 -4,1 -6,2 -1,1 -2,3 -2,6 0,3 1,4 2,6 1,1 3,2 6,2 2,0 4,-1 6,-2 1,-1 2,-3 2,-6 0,-3 -1,-5 -2,-6 -1,-1 -3,-2 -6,-2zm-1 -9c1,0 2,0 3,-1 1,0 2,0 3,0 5,0 8,2 11,5 3,3 4,7 4,12 0,6 -2,11 -6,14 -4,4 -9,5 -15,5 -6,0 -11,-2 -15,-5 -4,-4 -5,-8 -5,-14 0,-3 1,-6 2,-9 1,-3 4,-8 8,-14l7 -12 15 0 -12 19zm64 -19l0 11 -20 0 -1 7c1,0 2,0 3,-1 1,0 2,0 3,0 5,0 10,2 13,5 3,3 5,8 5,13 0,6 -2,11 -6,14 -4,3 -9,5 -16,5 -3,0 -6,0 -9,-1 -3,-1 -5,-2 -7,-3l1 -13 1 0c1,2 3,4 5,5 2,1 5,2 7,2 3,0 6,-1 8,-2 2,-2 3,-4 3,-7 0,-3 -1,-5 -3,-7 -2,-2 -5,-3 -8,-3 -2,0 -4,0 -6,1 -2,1 -3,2 -5,3l-2 -1 4 -28 29 0z"/>
  </g>
 </g>
</svg>
