<?xml version="1.0" standalone="no"?>
<!DOCTYPE svg PUBLIC "-//W3C//DTD SVG 20010904//EN"
 "http://www.w3.org/TR/2001/REC-SVG-20010904/DTD/svg10.dtd">
<svg version="1.0" xmlns="http://www.w3.org/2000/svg"
 width="1024.000000pt" height="1024.000000pt" viewBox="0 0 1024.000000 1024.000000"
 preserveAspectRatio="xMidYMid meet">

<g transform="translate(0.000000,1024.000000) scale(0.100000,-0.100000)"
fill="#000000" stroke="none">
<path d="M1064 6921 c-70 -42 -64 102 -64 -1627 l0 -1561 23 -34 c45 -68 141
-87 227 -46 61 30 413 309 400 317 -8 5 -9 10 -2 14 6 3 12 1 14 -6 3 -7 73
41 169 115 1324 1025 1333 1032 1363 1080 55 89 45 217 -22 279 -54 51 -1908
1443 -1951 1465 -54 28 -115 30 -157 4z m721 -850 c148 -67 152 -284 8 -355
l-42 -21 -1 -177 0 -177 -254 -260 c-267 -272 -259 -262 -269 -361 -3 -26 -4
-21 -5 16 l-2 51 -37 -1 -38 -1 -5 -575 -5 -575 -3 608 -2 608 179 187 c99
103 216 223 260 267 l81 80 0 155 -1 155 -41 20 c-23 11 -56 37 -72 58 -57 72
-45 198 26 264 56 53 151 67 223 34z m707 -387 c63 -44 90 -104 86 -185 -3
-50 -10 -75 -28 -102 -49 -71 -152 -112 -221 -88 -28 9 -35 7 -70 -21 l-39
-31 0 -147 0 -146 -128 -127 c-95 -93 -137 -129 -161 -133 -23 -5 -39 -18 -56
-44 -26 -41 -75 -85 -105 -95 -13 -4 -20 -15 -20 -33 0 -15 -5 -34 -10 -42 -8
-12 -10 -9 -10 14 0 21 -4 27 -16 22 -8 -3 -24 -1 -35 4 -16 9 -19 7 -19 -11
0 -27 -13 -17 -17 14 -2 12 -10 27 -19 32 -63 39 -81 55 -101 90 -68 120 16
279 155 293 86 8 173 -39 202 -108 7 -16 18 -30 24 -30 6 0 57 46 114 103
l102 102 0 147 0 147 48 37 c26 21 48 39 50 40 1 0 -5 15 -14 33 -12 24 -15
52 -12 106 3 64 7 79 34 112 69 87 181 107 266 47z m-1265 -1036 c-3 -7 -5 -2
-5 12 0 14 2 19 5 13 2 -7 2 -19 0 -25z m0 -375 c-1 -65 -3 -14 -3 112 0 127
2 180 3 118 2 -62 2 -165 0 -230z m510 95 c-3 -7 -5 -2 -5 12 0 14 2 19 5 13
2 -7 2 -19 0 -25z m-80 -50 c-2 -13 -4 -3 -4 22 0 25 2 35 4 23 2 -13 2 -33 0
-45z m-430 -280 c-3 -7 -5 -2 -5 12 0 14 2 19 5 13 2 -7 2 -19 0 -25z m0 -70
c-2 -13 -4 -5 -4 17 -1 22 1 32 4 23 2 -10 2 -28 0 -40z m0 -75 c-3 -10 -5 -2
-5 17 0 19 2 27 5 18 2 -10 2 -26 0 -35z m0 -70 c-3 -10 -5 -2 -5 17 0 19 2
27 5 18 2 -10 2 -26 0 -35z m0 -65 c-3 -7 -5 -2 -5 12 0 14 2 19 5 13 2 -7 2
-19 0 -25z m0 -55 c-3 -10 -5 -4 -5 12 0 17 2 24 5 18 2 -7 2 -21 0 -30z m13
-33 c0 -5 -4 -10 -10 -10 -5 0 -10 5 -10 10 0 6 5 10 10 10 6 0 10 -4 10 -10z"/>
<path d="M6103 6095 c-187 -41 -328 -195 -356 -391 -23 -157 31 -333 129 -423
147 -137 415 -161 637 -59 l67 31 0 213 0 214 -177 0 -178 0 2 -81 1 -82 81 2
81 2 0 -75 0 -74 -47 -19 c-69 -26 -174 -24 -235 6 -99 47 -158 151 -158 276
0 190 125 308 309 292 69 -6 127 -26 175 -60 l28 -20 61 61 61 61 -24 26 c-36
39 -156 93 -230 105 -85 13 -151 12 -227 -5z"/>
<path d="M7084 6095 c-244 -53 -393 -281 -356 -546 34 -237 187 -371 442 -386
69 -4 119 -1 180 11 82 17 218 73 213 89 -2 4 -3 99 -3 212 l0 205 -175 0
-175 0 0 -82 0 -83 82 0 83 0 0 -70 0 -70 -40 -19 c-29 -15 -61 -20 -120 -20
-92 0 -134 15 -193 69 -53 47 -81 107 -88 186 -13 137 36 247 136 303 50 28
63 31 140 31 70 -1 95 -5 140 -26 31 -14 62 -33 71 -41 14 -15 22 -10 84 46
l68 61 -39 34 c-105 93 -288 131 -450 96z"/>
<path d="M3550 6005 l0 -85 140 0 140 0 0 -375 0 -375 100 0 100 0 0 375 0
375 145 0 145 0 0 85 0 85 -385 0 -385 0 0 -85z"/>
<path d="M4450 5631 l0 -461 100 0 100 0 0 150 0 150 83 0 82 0 93 -150 94
-150 114 0 c90 0 114 3 108 13 -4 6 -52 81 -106 166 -55 84 -98 154 -96 155 2
1 22 11 46 21 57 24 116 92 133 152 20 70 15 170 -12 232 -27 63 -100 132
-167 157 -39 15 -90 18 -309 22 l-263 4 0 -461z m490 263 c92 -53 90 -191 -3
-241 -24 -13 -63 -18 -159 -21 l-128 -4 0 147 0 147 128 -4 c105 -3 134 -7
162 -24z"/>
<path d="M5390 5630 l0 -460 100 0 100 0 0 460 0 460 -100 0 -100 0 0 -460z"/>
<path d="M7750 5630 l0 -460 340 0 340 0 0 90 0 90 -240 0 -240 0 0 105 0 105
205 0 205 0 0 85 0 85 -205 0 -205 0 0 95 0 95 240 0 240 0 0 85 0 85 -340 0
-340 0 0 -460z"/>
<path d="M8580 5630 l0 -460 100 0 100 0 0 150 0 151 82 -3 81 -3 91 -147 91
-147 117 -1 117 0 -100 156 c-55 86 -102 161 -105 168 -2 6 10 17 28 24 48 17
106 68 130 115 30 58 37 186 14 255 -33 98 -122 170 -236 192 -29 5 -156 10
-281 10 l-229 0 0 -460z m487 267 c47 -25 63 -54 63 -115 0 -117 -41 -145
-222 -150 l-128 -4 0 147 0 147 128 -4 c93 -3 135 -9 159 -21z"/>
<path d="M7385 4815 c-110 -40 -156 -181 -91 -277 59 -89 178 -111 274 -52 20
13 22 22 22 94 l0 80 -70 0 c-70 0 -70 0 -70 -27 0 -26 3 -28 37 -28 36 0 38
-2 41 -37 3 -34 1 -37 -33 -48 -53 -17 -98 -5 -134 36 -58 66 -31 171 52 203
35 13 43 13 87 -6 47 -20 49 -20 65 -3 20 22 14 35 -23 54 -44 23 -112 28
-157 11z"/>
<path d="M8601 4820 c-66 -16 -124 -79 -136 -149 -15 -91 47 -187 135 -211 53
-14 130 -1 170 30 l25 19 -21 21 -20 21 -48 -22 c-63 -28 -104 -20 -146 28
-29 33 -32 41 -28 90 5 61 31 96 85 114 37 12 83 1 114 -27 15 -14 19 -13 45
9 l28 24 -27 18 c-61 39 -113 50 -176 35z"/>
<path d="M3550 4640 l0 -180 88 0 c103 0 156 20 197 74 47 62 46 159 -2 217
-43 50 -95 69 -195 69 l-88 0 0 -180z m190 105 c42 -22 60 -53 60 -107 0 -38
-6 -54 -29 -80 -25 -29 -35 -32 -95 -36 l-66 -4 0 121 0 121 50 0 c28 0 64 -7
80 -15z"/>
<path d="M4051 4798 c-5 -13 -36 -92 -70 -176 -34 -84 -61 -154 -61 -157 0 -3
15 -5 33 -5 30 0 34 4 48 43 l16 42 83 0 83 0 16 -42 c14 -39 18 -43 49 -43
40 0 44 -17 -43 196 l-64 159 -41 3 c-34 3 -41 0 -49 -20z m82 -125 l26 -63
-61 0 c-33 0 -58 3 -56 8 2 4 14 35 28 69 13 34 28 59 31 55 4 -4 19 -35 32
-69z"/>
<path d="M4280 4790 l0 -30 60 0 60 0 0 -150 0 -150 30 0 30 0 0 150 0 150 60
0 60 0 0 30 0 30 -150 0 -150 0 0 -30z"/>
<path d="M4647 4647 c-37 -95 -67 -176 -67 -180 0 -5 14 -7 32 -5 27 3 33 9
47 46 l15 42 82 0 81 0 17 -45 c16 -41 21 -45 52 -45 l34 0 -13 33 c-8 17 -40
98 -73 179 l-59 148 -40 0 -40 0 -68 -173z m158 -16 c6 -20 3 -21 -50 -21 -50
0 -56 2 -50 18 4 9 16 42 27 72 l21 54 23 -51 c12 -28 25 -61 29 -72z"/>
<path d="M5170 4640 l0 -180 30 0 30 0 0 180 0 180 -30 0 -30 0 0 -180z"/>
<path d="M5350 4640 l0 -180 33 0 32 0 -3 120 c-2 66 0 120 5 119 4 0 46 -54
92 -120 79 -112 86 -119 118 -119 l33 0 0 180 0 180 -30 0 -30 0 0 -120 c0
-66 -4 -120 -8 -120 -5 0 -46 54 -93 120 -78 111 -86 120 -116 120 l-33 0 0
-180z"/>
<path d="M5740 4790 c0 -30 1 -30 55 -30 l55 0 0 -150 0 -150 36 0 35 0 -3
150 -3 150 58 0 c57 0 57 0 57 30 l0 30 -145 0 -145 0 0 -30z"/>
<path d="M6110 4640 l0 -180 130 0 130 0 0 30 0 30 -100 0 -100 0 0 48 0 47
87 0 88 0 3 28 3 27 -90 0 -91 0 0 45 0 45 95 0 95 0 0 30 0 30 -125 0 -125 0
0 -180z"/>
<path d="M6460 4640 l0 -180 120 0 120 0 0 30 0 30 -85 0 -85 0 0 150 0 150
-35 0 -35 0 0 -180z"/>
<path d="M6790 4640 l0 -180 115 0 115 0 0 30 0 30 -85 0 -85 0 0 150 0 150
-30 0 -30 0 0 -180z"/>
<path d="M7110 4640 l0 -180 30 0 30 0 0 180 0 180 -30 0 -30 0 0 -180z"/>
<path d="M7700 4640 l0 -180 130 0 130 0 0 30 0 30 -100 0 -100 0 0 48 0 47
90 -3 90 -4 0 31 0 31 -90 0 -90 0 0 45 0 45 95 0 95 0 0 30 0 30 -125 0 -125
0 0 -180z"/>
<path d="M8060 4640 l0 -180 33 0 32 0 -2 120 c-1 66 1 120 5 120 4 0 45 -54
92 -120 79 -111 87 -120 118 -120 l32 0 0 180 0 180 -30 0 -29 0 -3 -126 -3
-125 -90 125 c-83 117 -92 126 -122 126 l-33 0 0 -180z"/>
<path d="M8890 4640 l0 -180 130 0 130 0 0 30 0 30 -100 0 -100 0 0 48 0 47
90 -3 90 -4 0 31 0 31 -90 0 -90 0 0 45 0 45 95 0 95 0 0 30 0 30 -125 0 -125
0 0 -180z"/>
</g>
</svg>
